<svg xmlns="http://www.w3.org/2000/svg" version="1.1" xmlns:xlink="http://www.w3.org/1999/xlink" xmlns:svgjs="http://svgjs.com/svgjs" width="260" height="260"><svg width="260" height="260" viewBox="0 0 260 260" fill="none" xmlns="http://www.w3.org/2000/svg">
<circle cx="130" cy="130" r="130" fill="#041427"></circle>
<path d="M133.3 110.94V111.64H129.94C130.033 112.107 130.08 112.573 130.08 113.04C130.08 113.507 130.08 113.973 130.08 114.44H105.58C105.58 115.653 104.973 116.587 103.76 117.24C103.2 117.427 102.78 117.52 102.5 117.52H73.94C73.5667 117.52 73.1933 117.52 72.82 117.52C72.4467 117.427 72.0733 117.333 71.7 117.24H48.88V117.94H61.2C61.1067 118.407 61.06 118.873 61.06 119.34C61.06 119.807 61.06 120.273 61.06 120.74H56.16C56.0667 120.927 56.02 121.16 56.02 121.44C56.02 121.72 56.02 121.953 56.02 122.14H56.44V123.54H54.34V126.34H61.06V127.04H38.38V128.44H45.52V131.24H59.94V131.94H54.06V132.64H50.28V135.44H61.06C61.1533 135.813 61.2 136.187 61.2 136.56C61.2 136.84 61.2 137.167 61.2 137.54H65.12V138.24H47.06V139.64H43V140.34H61.2V140.48H89.2C90.9733 140.48 92 141.367 92.28 143.14H113V145.24H112.02L111.74 148.04H110.2L110.06 149.44H113.7C113.7 149.72 113.653 149.953 113.56 150.14H112.72C112.627 150.327 112.58 150.56 112.58 150.84H117.2L116.78 152.94H112.44C112.44 153.033 112.393 153.127 112.3 153.22C112.3 153.313 112.3 153.453 112.3 153.64H111.18C111.087 154.013 110.947 154.387 110.76 154.76C110.667 155.04 110.573 155.367 110.48 155.74H112.16C112.16 155.833 112.067 156.067 111.88 156.44H109.08C108.893 156.907 108.66 157.373 108.38 157.84C108.193 158.307 107.96 158.773 107.68 159.24H110.48L109.22 161.34H110.48L109.08 163.44H108.24C107.867 163.907 107.447 164.373 106.98 164.84C106.607 165.307 106.187 165.773 105.72 166.24H104.6C104.507 166.333 104.413 166.427 104.32 166.52C104.227 166.613 104.087 166.753 103.9 166.94H97.88L97.18 167.64H125.32C124.76 168.107 124.2 168.573 123.64 169.04C123.08 169.507 122.473 169.973 121.82 170.44H120.28C119.347 171.093 118.227 171.793 116.92 172.54H87.38C86.4467 173.1 85.4667 173.613 84.44 174.08C83.4133 174.453 82.3867 174.873 81.36 175.34H104.46C104.18 175.433 103.853 175.527 103.48 175.62C103.2 175.713 102.873 175.853 102.5 176.04H96.9C96.5267 176.133 96.1533 176.227 95.78 176.32C95.4067 176.413 95.0333 176.553 94.66 176.74H84.58C81.22 177.673 77.7667 178.373 74.22 178.84H76.46C74.9667 179.027 73.4267 179.167 71.84 179.26C70.2533 179.353 68.6667 179.4 67.08 179.4C65.3067 179.4 63.58 179.353 61.9 179.26C60.3133 179.167 58.7267 179.027 57.14 178.84H54.9C51.1667 178.373 47.7133 177.673 44.54 176.74H54.62C54.2467 176.553 53.8733 176.413 53.5 176.32C53.22 176.227 52.8933 176.133 52.52 176.04H58.26L56.3 175.34H33.2C32.2667 174.873 31.2867 174.453 30.26 174.08C29.3267 173.613 28.3933 173.1 27.46 172.54H57.14C56.58 172.167 56.02 171.84 55.46 171.56C54.9 171.187 54.3867 170.813 53.92 170.44H55.46C54.34 169.6 53.2667 168.667 52.24 167.64H23.96C23.8667 167.453 23.7733 167.313 23.68 167.22C23.5867 167.127 23.4467 167.033 23.26 166.94H29.42C29.3267 166.753 29.1867 166.613 29 166.52C28.9067 166.427 28.8133 166.333 28.72 166.24H29.84C29 165.307 28.2067 164.373 27.46 163.44H28.3L27.04 161.34H25.78L24.52 159.24H21.72L20.46 156.44H23.4L23.12 155.74H21.3C21.2067 155.367 21.1133 155.04 21.02 154.76C20.9267 154.387 20.7867 154.013 20.6 153.64H21.72L21.44 152.94H25.78C25.6867 152.567 25.5933 152.24 25.5 151.96C25.4067 151.587 25.3133 151.213 25.22 150.84H22.98C22.8867 150.653 22.84 150.42 22.84 150.14H20.46C20.3667 149.953 20.32 149.72 20.32 149.44H20.46C20.46 149.067 20.3667 148.6 20.18 148.04H12.2L11.78 145.24H22.56C22.4667 144.867 22.42 144.54 22.42 144.26C22.42 143.887 22.3733 143.513 22.28 143.14H24.94C24.94 142.86 24.94 142.58 24.94 142.3C24.94 142.02 24.8933 141.74 24.8 141.46V140.34H6.6V139.64H10.66V138.24H28.72V137.54H24.8C24.8 137.167 24.7533 136.84 24.66 136.56C24.66 136.187 24.66 135.813 24.66 135.44H13.88V132.64H17.66V131.94H23.54V131.24H9.12V128.44H1.98V127.04H24.66V126.34H17.94V123.54H20.04V122.14H19.62V120.74H24.66V117.94H12.48V117.24H39.36V116.54C39.4533 116.167 39.5 115.84 39.5 115.56C39.5 115.187 39.5 114.813 39.5 114.44H32.08C32.08 113.973 32.08 113.507 32.08 113.04C32.1733 112.573 32.2667 112.107 32.36 111.64H36.84C36.9333 111.453 36.98 111.22 36.98 110.94H8C8.09333 110.753 8.14 110.52 8.14 110.24C8.14 109.96 8.18667 109.727 8.28 109.54H33.76L34.46 106.74H28.72L29.14 105.34H19.76L20.04 104.64H23.12C23.2133 104.453 23.3067 104.22 23.4 103.94C23.4933 103.66 23.5867 103.427 23.68 103.24H22.14L22.7 101.84H23.4C23.5867 101.467 23.7733 101.14 23.96 100.86C24.1467 100.487 24.2867 100.113 24.38 99.74H24.52L25.78 97.64H25.36C25.5467 97.2667 25.7333 96.94 25.92 96.66C26.2 96.2867 26.48 95.9133 26.76 95.54H25.64C26.0133 95.0733 26.3867 94.6067 26.76 94.14C27.1333 93.58 27.5067 93.1133 27.88 92.74H26.62C26.7133 92.5533 26.8067 92.4133 26.9 92.32C26.9933 92.2267 27.0867 92.1333 27.18 92.04H25.78L26.48 91.34H26.2C26.3867 91.1533 26.5267 91.0133 26.62 90.92C26.7133 90.8267 26.8067 90.7333 26.9 90.64H24.38C24.5667 90.4533 24.8 90.22 25.08 89.94C25.36 89.66 25.64 89.4267 25.92 89.24H29.28C29.7467 88.8667 30.2133 88.54 30.68 88.26C31.1467 87.8867 31.6133 87.5133 32.08 87.14H30.54L31.66 86.44H29.28C29.4667 86.2533 29.6533 86.1133 29.84 86.02C30.0267 85.9267 30.2133 85.8333 30.4 85.74H37.68C38.3333 85.3667 38.9867 85.04 39.64 84.76C40.2933 84.3867 40.9467 84.0133 41.6 83.64H41.18C41.74 83.36 42.3 83.1267 42.86 82.94C43.42 82.66 43.98 82.4267 44.54 82.24H47.2C47.48 82.0533 47.76 81.9133 48.04 81.82C48.4133 81.7267 48.7867 81.6333 49.16 81.54H44.96C47.76 80.5133 50.7467 79.8133 53.92 79.44H57.7C61.34 78.88 65.1667 78.6 69.18 78.6C73.1 78.6 76.88 78.88 80.52 79.44H76.88C79.96 79.8133 83.04 80.5133 86.12 81.54H90.32C90.6933 81.6333 91.02 81.7267 91.3 81.82C91.6733 81.9133 92.0467 82.0533 92.42 82.24H89.76C91.16 82.7067 92.3267 83.1733 93.26 83.64H93.68C94.4267 84.0133 95.1267 84.3867 95.78 84.76C96.4333 85.04 97.0867 85.3667 97.74 85.74H90.6C90.7867 85.8333 90.9733 85.9267 91.16 86.02C91.3467 86.1133 91.5333 86.2533 91.72 86.44H94.1C94.2867 86.5333 94.4733 86.6267 94.66 86.72C94.8467 86.8133 94.9867 86.9533 95.08 87.14H96.62L99.42 89.24H95.92L97.6 90.64H100.12L100.96 91.34H101.1L101.8 92.04H103.2L103.9 92.74H105.16C105.533 93.1133 105.907 93.58 106.28 94.14C106.653 94.6067 107.027 95.0733 107.4 95.54H108.38C108.66 95.9133 108.893 96.2867 109.08 96.66C109.36 96.94 109.593 97.2667 109.78 97.64H110.2C110.387 98.0133 110.573 98.3867 110.76 98.76C110.947 99.04 111.133 99.3667 111.32 99.74H111.04C111.227 100.113 111.413 100.487 111.6 100.86C111.787 101.14 111.927 101.467 112.02 101.84H111.32L111.74 103.24H113.28L113.7 104.64H110.62C110.62 104.733 110.62 104.827 110.62 104.92C110.713 105.013 110.76 105.153 110.76 105.34H120.14C120.14 105.713 120.233 106.18 120.42 106.74H107.68L108.1 109.54H116.22L116.36 110.94H133.3ZM69.04 106.74H78.98C77.4867 106.18 75.8067 105.9 73.94 105.9C72.0733 105.9 70.44 106.18 69.04 106.74ZM93.26 113.46C93.1667 113.087 93.0733 112.76 92.98 112.48C92.8867 112.2 92.7467 111.92 92.56 111.64H95.92L95.5 110.94H78.7C78.6067 110.66 78.4667 110.427 78.28 110.24C78.0933 109.96 77.9067 109.727 77.72 109.54H45.94C45.8467 109.727 45.7067 109.96 45.52 110.24C45.4267 110.427 45.2867 110.66 45.1 110.94H74.08L73.8 111.64H69.32C69.1333 112.013 68.9933 112.48 68.9 113.04C68.8067 113.507 68.7133 113.973 68.62 114.44H93.68L93.26 113.46ZM76.74 143.14H58.82L59.24 145.24H48.46C48.6467 145.8 48.8333 146.313 49.02 146.78C49.2067 147.153 49.44 147.573 49.72 148.04H57.7C57.8867 148.32 58.0733 148.6 58.26 148.88C58.4467 149.067 58.6333 149.253 58.82 149.44H58.54L59.24 150.14H61.62C61.8067 150.233 61.9933 150.373 62.18 150.56C62.3667 150.653 62.5533 150.747 62.74 150.84H64.98C66.5667 151.68 68.48 152.1 70.72 152.1C72.96 152.1 74.8267 151.68 76.32 150.84H71.7L72.82 150.14H73.66L74.5 149.44H70.86C71.0467 149.253 71.2333 149.067 71.42 148.88C71.7 148.6 71.8867 148.32 71.98 148.04H73.52C74.08 147.2 74.5467 146.267 74.92 145.24H75.9L76.18 144.54C76.3667 143.98 76.5533 143.513 76.74 143.14ZM240.812 107.44H236.192L236.052 108.14H249.352L248.512 110.94H237.312L236.612 113.74H236.052L235.632 115.14H224.992L224.152 117.94H217.712L217.292 119.34H233.532L233.392 120.04H234.232L233.392 122.84H231.432L230.872 124.94H233.392L232.972 126.34H233.532L233.112 127.74H229.332L228.772 129.84H231.432L231.012 131.24H227.232L226.952 132.64H223.872L223.312 134.74H221.912L221.492 136.14H228.072L227.652 137.54H232.272L231.992 138.24H218.412L217.572 141.04H223.172L222.612 143.14H216.732L215.892 145.94H223.452L222.752 148.04H224.012L223.872 148.74H224.712L224.432 149.44H224.992L224.852 150.14H223.872L223.452 151.54H222.052L221.492 153.64H222.192L221.772 155.04H222.052L221.352 157.14H221.492L220.932 159.24H220.792L220.092 161.34H218.272L217.852 162.74H218.412L218.272 163.44H219.392L218.552 166.24H219.672L219.252 167.64H218.552L217.992 169.74H219.112L218.692 171.14H217.292L217.012 172.54H213.932L213.652 173.38L213.512 173.94H220.932C220.466 174.967 219.766 175.9 218.832 176.74H200.912C200.632 177.02 200.259 177.253 199.792 177.44H215.192C214.819 177.533 214.399 177.673 213.932 177.86C213.466 177.953 212.952 178 212.392 178H180.472C179.912 178 179.399 177.953 178.932 177.86C178.559 177.673 178.139 177.533 177.672 177.44H162.132C161.759 177.253 161.386 177.02 161.012 176.74H178.792C177.859 175.9 177.159 174.967 176.692 173.94H169.412C169.319 173.847 169.272 173.753 169.272 173.66C169.272 173.567 169.226 173.473 169.132 173.38L168.852 172.54H171.932L171.512 171.14H172.912L172.492 169.74H171.232L170.672 167.64H171.232L170.812 166.24H169.832L168.992 163.44H167.872L167.732 162.74H167.172L166.752 161.34H168.572L167.872 159.24H168.012L167.452 157.14H167.312L166.752 155.04H166.472L166.052 153.64H165.352L164.792 151.54H166.052L165.632 150.14H166.612L166.472 149.44H165.912L165.632 148.74H164.792L164.652 148.04H163.392L162.692 145.94H155.132L154.292 143.14H160.172L159.612 141.04H154.012L153.172 138.24H166.752L166.612 137.54H162.132L161.712 136.14H166.052L165.632 134.74H159.612L159.052 132.64H161.012L160.592 131.24H159.752L159.332 129.84H161.572L161.012 127.74H158.072L157.652 126.34H162.972L162.552 124.94H157.232L156.672 122.84H158.212L157.372 120.04H152.472L152.192 119.34H152.892L152.472 117.94H158.492L157.652 115.14H153.872L153.452 113.74H154.572L153.872 110.94H162.272L161.432 108.14H148.412L148.132 107.44H177.252L176.832 106.04H161.152L160.452 103.94H170.392L169.552 101.14H168.432L167.592 98.34H162.692L162.272 96.94H148.692L147.852 94.14H148.832L148.412 92.74L148.272 92.04H147.572L147.292 91.34L146.452 88.54H145.752L145.472 87.84H144.352L143.792 85.74H133.572L133.292 85.04H141.272L140.992 84.06C140.992 83.9667 140.992 83.92 140.992 83.92C140.899 83.8267 140.852 83.7333 140.852 83.64H142.532V83.08C142.532 82.24 142.859 81.4933 143.512 80.84H137.352C137.912 80.28 138.612 80 139.452 80H165.492C166.892 80 168.012 80.28 168.852 80.84H175.012C176.132 81.4933 177.019 82.4267 177.672 83.64H175.852L176.272 84.62L176.412 85.04H168.432L168.572 85.74H178.792L179.352 87.84H180.472L180.612 88.54H181.452L182.152 91.34L182.292 92.04H183.132L183.272 92.74H183.132L183.552 94.14H182.712L183.412 96.94H196.992L197.272 98.34H202.872L203.292 96.94H203.992L204.692 94.14H205.112L205.392 92.74H205.812L205.952 92.04H202.312L202.452 91.34H205.952L206.652 88.54H203.992L204.132 87.84H193.352L193.912 85.74H198.812L198.952 85.04H189.712L189.852 84.62C189.946 84.4333 189.992 84.2467 189.992 84.06C189.992 83.8733 190.039 83.7333 190.132 83.64H206.932C207.399 82.4267 208.239 81.4933 209.452 80.84H214.632C215.659 80.28 216.826 80 218.132 80H244.172C245.012 80 245.712 80.28 246.272 80.84H240.952C241.606 81.4933 241.932 82.24 241.932 83.08V83.64H225.272C225.179 83.7333 225.132 83.8733 225.132 84.06L224.852 85.04H234.092L233.952 85.74H228.912L228.352 87.84H239.132L238.992 88.54H241.512L240.672 91.34H237.312L237.172 92.04H240.812L240.672 92.74H240.252L239.832 94.14H239.412L238.572 96.94H237.872L237.452 98.34H236.472L235.772 101.14H253.132L252.292 103.94H242.632L241.932 106.04H241.092L240.812 107.44ZM194.892 103.94L195.312 106.04H207.632L208.192 103.94H217.992L218.692 101.14H203.992L204.692 103.94H194.892ZM214.352 110.94L215.052 108.14H201.892L202.032 107.44H182.432L182.572 108.14H195.592L196.432 110.94H187.892L188.592 113.74H187.472L187.892 115.14H201.752L202.032 113.74H202.592L203.292 110.94H214.352ZM200.492 120.04H199.652L199.792 119.34H186.072L186.212 120.04H191.112L191.812 122.84H190.272L190.832 124.94H196.012L196.432 126.34H191.112L191.532 127.74H194.472L194.892 129.84H192.652L193.072 131.24H193.772L193.912 131.66L194.052 131.24H197.692L198.112 129.84H195.452L195.872 127.74H199.792L200.072 126.34H199.512L199.792 124.94H197.412L197.832 122.84H199.792L200.492 120.04Z" fill="#DBFF00"></path>
</svg><style>@media (prefers-color-scheme: light) { :root { filter: none; } }
</style></svg>