<svg viewBox="0 0 155 20" fill="none" xmlns="http://www.w3.org/2000/svg">
<path d="M21.59 5.462V5.572H21.062C21.0767 5.64533 21.084 5.71867 21.084 5.792C21.084 5.86533 21.084 5.93867 21.084 6.012H17.234C17.234 6.20267 17.1387 6.34933 16.948 6.452C16.86 6.48133 16.794 6.496 16.75 6.496H12.262C12.2033 6.496 12.1447 6.496 12.086 6.496C12.0273 6.48133 11.9687 6.46667 11.91 6.452H8.324V6.562H10.26C10.2453 6.63533 10.238 6.70867 10.238 6.782C10.238 6.85533 10.238 6.92867 10.238 7.002H9.468C9.45333 7.03133 9.446 7.068 9.446 7.112C9.446 7.156 9.446 7.19267 9.446 7.222H9.512V7.442H9.182V7.882H10.238V7.992H6.674V8.212H7.796V8.652H10.062V8.762H9.138V8.872H8.544V9.312H10.238C10.2527 9.37067 10.26 9.42933 10.26 9.488C10.26 9.532 10.26 9.58333 10.26 9.642H10.876V9.752H8.038V9.972H7.4V10.082H10.26V10.104H14.66C14.9387 10.104 15.1 10.2433 15.144 10.522H18.4V10.852H18.246L18.202 11.292H17.96L17.938 11.512H18.51C18.51 11.556 18.5027 11.5927 18.488 11.622H18.356C18.3413 11.6513 18.334 11.688 18.334 11.732H19.06L18.994 12.062H18.312C18.312 12.0767 18.3047 12.0913 18.29 12.106C18.29 12.1207 18.29 12.1427 18.29 12.172H18.114C18.0993 12.2307 18.0773 12.2893 18.048 12.348C18.0333 12.392 18.0187 12.4433 18.004 12.502H18.268C18.268 12.5167 18.2533 12.5533 18.224 12.612H17.784C17.7547 12.6853 17.718 12.7587 17.674 12.832C17.6447 12.9053 17.608 12.9787 17.564 13.052H18.004L17.806 13.382H18.004L17.784 13.712H17.652C17.5933 13.7853 17.5273 13.8587 17.454 13.932C17.3953 14.0053 17.3293 14.0787 17.256 14.152H17.08C17.0653 14.1667 17.0507 14.1813 17.036 14.196C17.0213 14.2107 16.9993 14.2327 16.97 14.262H16.024L15.914 14.372H20.336C20.248 14.4453 20.16 14.5187 20.072 14.592C19.984 14.6653 19.8887 14.7387 19.786 14.812H19.544C19.3973 14.9147 19.2213 15.0247 19.016 15.142H14.374C14.2273 15.23 14.0733 15.3107 13.912 15.384C13.7507 15.4427 13.5893 15.5087 13.428 15.582H17.058C17.014 15.5967 16.9627 15.6113 16.904 15.626C16.86 15.6407 16.8087 15.6627 16.75 15.692H15.87C15.8113 15.7067 15.7527 15.7213 15.694 15.736C15.6353 15.7507 15.5767 15.7727 15.518 15.802H13.934C13.406 15.9487 12.8633 16.0587 12.306 16.132H12.658C12.4233 16.1613 12.1813 16.1833 11.932 16.198C11.6827 16.2127 11.4333 16.22 11.184 16.22C10.9053 16.22 10.634 16.2127 10.37 16.198C10.1207 16.1833 9.87133 16.1613 9.622 16.132H9.27C8.68333 16.0587 8.14067 15.9487 7.642 15.802H9.226C9.16733 15.7727 9.10867 15.7507 9.05 15.736C9.006 15.7213 8.95467 15.7067 8.896 15.692H9.798L9.49 15.582H5.86C5.71333 15.5087 5.55933 15.4427 5.398 15.384C5.25133 15.3107 5.10467 15.23 4.958 15.142H9.622C9.534 15.0833 9.446 15.032 9.358 14.988C9.27 14.9293 9.18933 14.8707 9.116 14.812H9.358C9.182 14.68 9.01333 14.5333 8.852 14.372H4.408C4.39333 14.3427 4.37867 14.3207 4.364 14.306C4.34933 14.2913 4.32733 14.2767 4.298 14.262H5.266C5.25133 14.2327 5.22933 14.2107 5.2 14.196C5.18533 14.1813 5.17067 14.1667 5.156 14.152H5.332C5.2 14.0053 5.07533 13.8587 4.958 13.712H5.09L4.892 13.382H4.694L4.496 13.052H4.056L3.858 12.612H4.32L4.276 12.502H3.99C3.97533 12.4433 3.96067 12.392 3.946 12.348C3.93133 12.2893 3.90933 12.2307 3.88 12.172H4.056L4.012 12.062H4.694C4.67933 12.0033 4.66467 11.952 4.65 11.908C4.63533 11.8493 4.62067 11.7907 4.606 11.732H4.254C4.23933 11.7027 4.232 11.666 4.232 11.622H3.858C3.84333 11.5927 3.836 11.556 3.836 11.512H3.858C3.858 11.4533 3.84333 11.38 3.814 11.292H2.56L2.494 10.852H4.188C4.17333 10.7933 4.166 10.742 4.166 10.698C4.166 10.6393 4.15867 10.5807 4.144 10.522H4.562C4.562 10.478 4.562 10.434 4.562 10.39C4.562 10.346 4.55467 10.302 4.54 10.258V10.082H1.68V9.972H2.318V9.752H5.156V9.642H4.54C4.54 9.58333 4.53267 9.532 4.518 9.488C4.518 9.42933 4.518 9.37067 4.518 9.312H2.824V8.872H3.418V8.762H4.342V8.652H2.076V8.212H0.954V7.992H4.518V7.882H3.462V7.442H3.792V7.222H3.726V7.002H4.518V6.562H2.604V6.452H6.828V6.342C6.84267 6.28333 6.85 6.232 6.85 6.188C6.85 6.12933 6.85 6.07067 6.85 6.012H5.684C5.684 5.93867 5.684 5.86533 5.684 5.792C5.69867 5.71867 5.71333 5.64533 5.728 5.572H6.432C6.44667 5.54267 6.454 5.506 6.454 5.462H1.9C1.91467 5.43267 1.922 5.396 1.922 5.352C1.922 5.308 1.92933 5.27133 1.944 5.242H5.948L6.058 4.802H5.156L5.222 4.582H3.748L3.792 4.472H4.276C4.29067 4.44267 4.30533 4.406 4.32 4.362C4.33467 4.318 4.34933 4.28133 4.364 4.252H4.122L4.21 4.032H4.32C4.34933 3.97333 4.37867 3.922 4.408 3.878C4.43733 3.81933 4.45933 3.76067 4.474 3.702H4.496L4.694 3.372H4.628C4.65733 3.31333 4.68667 3.262 4.716 3.218C4.76 3.15933 4.804 3.10067 4.848 3.042H4.672C4.73067 2.96867 4.78933 2.89533 4.848 2.822C4.90667 2.734 4.96533 2.66067 5.024 2.602H4.826C4.84067 2.57267 4.85533 2.55067 4.87 2.536C4.88467 2.52133 4.89933 2.50667 4.914 2.492H4.694L4.804 2.382H4.76C4.78933 2.35267 4.81133 2.33067 4.826 2.316C4.84067 2.30133 4.85533 2.28667 4.87 2.272H4.474C4.50333 2.24267 4.54 2.206 4.584 2.162C4.628 2.118 4.672 2.08133 4.716 2.052H5.244C5.31733 1.99333 5.39067 1.942 5.464 1.898C5.53733 1.83933 5.61067 1.78067 5.684 1.722H5.442L5.618 1.612H5.244C5.27333 1.58267 5.30267 1.56067 5.332 1.546C5.36133 1.53133 5.39067 1.51667 5.42 1.502H6.564C6.66667 1.44333 6.76933 1.392 6.872 1.348C6.97467 1.28933 7.07733 1.23067 7.18 1.172H7.114C7.202 1.128 7.29 1.09133 7.378 1.062C7.466 1.018 7.554 0.981333 7.642 0.952H8.06C8.104 0.922666 8.148 0.900666 8.192 0.885999C8.25067 0.871333 8.30933 0.856666 8.368 0.842H7.708C8.148 0.680666 8.61733 0.570666 9.116 0.511999H9.71C10.282 0.423999 10.8833 0.379999 11.514 0.379999C12.13 0.379999 12.724 0.423999 13.296 0.511999H12.724C13.208 0.570666 13.692 0.680666 14.176 0.842H14.836C14.8947 0.856666 14.946 0.871333 14.99 0.885999C15.0487 0.900666 15.1073 0.922666 15.166 0.952H14.748C14.968 1.02533 15.1513 1.09867 15.298 1.172H15.364C15.4813 1.23067 15.5913 1.28933 15.694 1.348C15.7967 1.392 15.8993 1.44333 16.002 1.502H14.88C14.9093 1.51667 14.9387 1.53133 14.968 1.546C14.9973 1.56067 15.0267 1.58267 15.056 1.612H15.43C15.4593 1.62667 15.4887 1.64133 15.518 1.656C15.5473 1.67067 15.5693 1.69267 15.584 1.722H15.826L16.266 2.052H15.716L15.98 2.272H16.376L16.508 2.382H16.53L16.64 2.492H16.86L16.97 2.602H17.168C17.2267 2.66067 17.2853 2.734 17.344 2.822C17.4027 2.89533 17.4613 2.96867 17.52 3.042H17.674C17.718 3.10067 17.7547 3.15933 17.784 3.218C17.828 3.262 17.8647 3.31333 17.894 3.372H17.96C17.9893 3.43067 18.0187 3.48933 18.048 3.548C18.0773 3.592 18.1067 3.64333 18.136 3.702H18.092C18.1213 3.76067 18.1507 3.81933 18.18 3.878C18.2093 3.922 18.2313 3.97333 18.246 4.032H18.136L18.202 4.252H18.444L18.51 4.472H18.026C18.026 4.48667 18.026 4.50133 18.026 4.516C18.0407 4.53067 18.048 4.55267 18.048 4.582H19.522C19.522 4.64067 19.5367 4.714 19.566 4.802H17.564L17.63 5.242H18.906L18.928 5.462H21.59ZM11.492 4.802H13.054C12.8193 4.714 12.5553 4.67 12.262 4.67C11.9687 4.67 11.712 4.714 11.492 4.802ZM15.298 5.858C15.2833 5.79933 15.2687 5.748 15.254 5.704C15.2393 5.66 15.2173 5.616 15.188 5.572H15.716L15.65 5.462H13.01C12.9953 5.418 12.9733 5.38133 12.944 5.352C12.9147 5.308 12.8853 5.27133 12.856 5.242H7.862C7.84733 5.27133 7.82533 5.308 7.796 5.352C7.78133 5.38133 7.75933 5.418 7.73 5.462H12.284L12.24 5.572H11.536C11.5067 5.63067 11.4847 5.704 11.47 5.792C11.4553 5.86533 11.4407 5.93867 11.426 6.012H15.364L15.298 5.858ZM12.702 10.522H9.886L9.952 10.852H8.258C8.28733 10.94 8.31667 11.0207 8.346 11.094C8.37533 11.1527 8.412 11.2187 8.456 11.292H9.71C9.73933 11.336 9.76867 11.38 9.798 11.424C9.82733 11.4533 9.85667 11.4827 9.886 11.512H9.842L9.952 11.622H10.326C10.3553 11.6367 10.3847 11.6587 10.414 11.688C10.4433 11.7027 10.4727 11.7173 10.502 11.732H10.854C11.1033 11.864 11.404 11.93 11.756 11.93C12.108 11.93 12.4013 11.864 12.636 11.732H11.91L12.086 11.622H12.218L12.35 11.512H11.778C11.8073 11.4827 11.8367 11.4533 11.866 11.424C11.91 11.38 11.9393 11.336 11.954 11.292H12.196C12.284 11.16 12.3573 11.0133 12.416 10.852H12.57L12.614 10.742C12.6433 10.654 12.6727 10.5807 12.702 10.522ZM95.1 4.912H94.374L94.352 5.022H96.442L96.31 5.462H94.55L94.44 5.902H94.352L94.286 6.122H92.614L92.482 6.562H91.47L91.404 6.782H93.956L93.934 6.892H94.066L93.934 7.332H93.626L93.538 7.662H93.934L93.868 7.882H93.956L93.89 8.102H93.296L93.208 8.432H93.626L93.56 8.652H92.966L92.922 8.872H92.438L92.35 9.202H92.13L92.064 9.422H93.098L93.032 9.642H93.758L93.714 9.752H91.58L91.448 10.192H92.328L92.24 10.522H91.316L91.184 10.962H92.372L92.262 11.292H92.46L92.438 11.402H92.57L92.526 11.512H92.614L92.592 11.622H92.438L92.372 11.842H92.152L92.064 12.172H92.174L92.108 12.392H92.152L92.042 12.722H92.064L91.976 13.052H91.954L91.844 13.382H91.558L91.492 13.602H91.58L91.558 13.712H91.734L91.602 14.152H91.778L91.712 14.372H91.602L91.514 14.702H91.69L91.624 14.922H91.404L91.36 15.142H90.876L90.832 15.274L90.81 15.362H91.976C91.9027 15.5233 91.7927 15.67 91.646 15.802H88.83C88.786 15.846 88.7274 15.8827 88.654 15.912H91.074C91.0154 15.9267 90.9494 15.9487 90.876 15.978C90.8027 15.9927 90.722 16 90.634 16H85.618C85.53 16 85.4494 15.9927 85.376 15.978C85.3174 15.9487 85.2514 15.9267 85.178 15.912H82.736C82.6774 15.8827 82.6187 15.846 82.56 15.802H85.354C85.2074 15.67 85.0974 15.5233 85.024 15.362H83.88C83.8654 15.3473 83.858 15.3327 83.858 15.318C83.858 15.3033 83.8507 15.2887 83.836 15.274L83.792 15.142H84.276L84.21 14.922H84.43L84.364 14.702H84.166L84.078 14.372H84.166L84.1 14.152H83.946L83.814 13.712H83.638L83.616 13.602H83.528L83.462 13.382H83.748L83.638 13.052H83.66L83.572 12.722H83.55L83.462 12.392H83.418L83.352 12.172H83.242L83.154 11.842H83.352L83.286 11.622H83.44L83.418 11.512H83.33L83.286 11.402H83.154L83.132 11.292H82.934L82.824 10.962H81.636L81.504 10.522H82.428L82.34 10.192H81.46L81.328 9.752H83.462L83.44 9.642H82.736L82.67 9.422H83.352L83.286 9.202H82.34L82.252 8.872H82.56L82.494 8.652H82.362L82.296 8.432H82.648L82.56 8.102H82.098L82.032 7.882H82.868L82.802 7.662H81.966L81.878 7.332H82.12L81.988 6.892H81.218L81.174 6.782H81.284L81.218 6.562H82.164L82.032 6.122H81.438L81.372 5.902H81.548L81.438 5.462H82.758L82.626 5.022H80.58L80.536 4.912H85.112L85.046 4.692H82.582L82.472 4.362H84.034L83.902 3.922H83.726L83.594 3.482H82.824L82.758 3.262H80.624L80.492 2.822H80.646L80.58 2.602L80.558 2.492H80.448L80.404 2.382L80.272 1.942H80.162L80.118 1.832H79.942L79.854 1.502H78.248L78.204 1.392H79.458L79.414 1.238C79.414 1.22333 79.414 1.216 79.414 1.216C79.3994 1.20133 79.392 1.18667 79.392 1.172H79.656V1.084C79.656 0.951999 79.7074 0.834666 79.81 0.732H78.842C78.93 0.643999 79.04 0.599999 79.172 0.599999H83.264C83.484 0.599999 83.66 0.643999 83.792 0.732H84.76C84.936 0.834666 85.0754 0.981333 85.178 1.172H84.892L84.958 1.326L84.98 1.392H83.726L83.748 1.502H85.354L85.442 1.832H85.618L85.64 1.942H85.772L85.882 2.382L85.904 2.492H86.036L86.058 2.602H86.036L86.102 2.822H85.97L86.08 3.262H88.214L88.258 3.482H89.138L89.204 3.262H89.314L89.424 2.822H89.49L89.534 2.602H89.6L89.622 2.492H89.05L89.072 2.382H89.622L89.732 1.942H89.314L89.336 1.832H87.642L87.73 1.502H88.5L88.522 1.392H87.07L87.092 1.326C87.1067 1.29667 87.114 1.26733 87.114 1.238C87.114 1.20867 87.1214 1.18667 87.136 1.172H89.776C89.8494 0.981333 89.9814 0.834666 90.172 0.732H90.986C91.1474 0.643999 91.3307 0.599999 91.536 0.599999H95.628C95.76 0.599999 95.87 0.643999 95.958 0.732H95.122C95.2247 0.834666 95.276 0.951999 95.276 1.084V1.172H92.658C92.6434 1.18667 92.636 1.20867 92.636 1.238L92.592 1.392H94.044L94.022 1.502H93.23L93.142 1.832H94.836L94.814 1.942H95.21L95.078 2.382H94.55L94.528 2.492H95.1L95.078 2.602H95.012L94.946 2.822H94.88L94.748 3.262H94.638L94.572 3.482H94.418L94.308 3.922H97.036L96.904 4.362H95.386L95.276 4.692H95.144L95.1 4.912ZM87.884 4.362L87.95 4.692H89.886L89.974 4.362H91.514L91.624 3.922H89.314L89.424 4.362H87.884ZM90.942 5.462L91.052 5.022H88.984L89.006 4.912H85.926L85.948 5.022H87.994L88.126 5.462H86.784L86.894 5.902H86.718L86.784 6.122H88.962L89.006 5.902H89.094L89.204 5.462H90.942ZM88.764 6.892H88.632L88.654 6.782H86.498L86.52 6.892H87.29L87.4 7.332H87.158L87.246 7.662H88.06L88.126 7.882H87.29L87.356 8.102H87.818L87.884 8.432H87.532L87.598 8.652H87.708L87.73 8.718L87.752 8.652H88.324L88.39 8.432H87.972L88.038 8.102H88.654L88.698 7.882H88.61L88.654 7.662H88.28L88.346 7.332H88.654L88.764 6.892Z" fill="#DBFF00"/>
<path d="M31.6268 10.798C31.6388 10.858 31.6448 10.918 31.6448 10.978C31.6448 11.038 31.6448 11.098 31.6448 11.158H30.3668V11.338H29.6288V11.518H30.3308V11.608H29.5208V11.878H29.0708V11.968H30.0788C30.0788 12.004 30.0728 12.034 30.0608 12.058H30.0068V12.148H30.1688V12.166C30.1688 12.214 30.1628 12.268 30.1508 12.328C30.1508 12.388 30.1448 12.448 30.1328 12.508H30.0068L29.9528 12.868H30.2228C30.2228 12.916 30.2108 12.976 30.1868 13.048H30.1328C30.1208 13.096 30.1088 13.144 30.0968 13.192C30.0848 13.228 30.0728 13.27 30.0608 13.318H30.2048C30.1928 13.378 30.1748 13.438 30.1508 13.498C30.1268 13.558 30.1028 13.618 30.0788 13.678H29.8088L29.7368 13.858H29.7728C29.7488 13.906 29.7368 13.936 29.7368 13.948H29.6648C29.6168 14.068 29.5508 14.188 29.4668 14.308H29.5028C29.4908 14.332 29.4728 14.362 29.4488 14.398C29.4248 14.434 29.4008 14.464 29.3768 14.488H29.3588L29.1428 14.758C29.1308 14.77 29.1188 14.782 29.1068 14.794C29.0948 14.806 29.0768 14.824 29.0528 14.848H28.9628C28.9148 14.896 28.8668 14.944 28.8188 14.992C28.7708 15.028 28.7168 15.07 28.6568 15.118H28.1168L27.7388 15.388H27.8108C27.7868 15.4 27.7628 15.412 27.7388 15.424C27.7148 15.436 27.6908 15.454 27.6668 15.478H27.5408C27.5168 15.49 27.4868 15.502 27.4508 15.514C27.4148 15.526 27.3848 15.544 27.3608 15.568H28.3328C28.2728 15.604 28.2068 15.64 28.1348 15.676C28.0628 15.7 27.9908 15.724 27.9188 15.748H27.6128C27.5288 15.784 27.4388 15.82 27.3428 15.856C27.2468 15.88 27.1508 15.904 27.0548 15.928H27.1268C26.9828 15.964 26.8328 15.994 26.6768 16.018C26.5208 16.054 26.3588 16.084 26.1908 16.108H26.7488C26.5568 16.132 26.3588 16.15 26.1548 16.162C25.9508 16.174 25.7408 16.18 25.5248 16.18C25.2968 16.18 25.0808 16.174 24.8768 16.162C24.6848 16.15 24.4868 16.132 24.2828 16.108H23.7068C23.5508 16.084 23.3888 16.054 23.2208 16.018C23.0648 15.994 22.9148 15.964 22.7708 15.928H22.7168C22.6208 15.904 22.5248 15.88 22.4288 15.856C22.3448 15.82 22.2548 15.784 22.1588 15.748H22.4468C22.3868 15.724 22.3208 15.7 22.2488 15.676C22.1768 15.64 22.1108 15.604 22.0508 15.568H21.0788L20.9168 15.478H21.0428L20.8808 15.388H20.8088C20.6648 15.292 20.5388 15.202 20.4308 15.118H20.9708C20.9228 15.07 20.8748 15.028 20.8268 14.992C20.7788 14.944 20.7308 14.896 20.6828 14.848H20.7728C20.7608 14.824 20.7488 14.806 20.7368 14.794C20.7248 14.782 20.7068 14.77 20.6828 14.758L20.4668 14.488H20.4848L20.3588 14.308H20.3228C20.2388 14.188 20.1728 14.068 20.1248 13.948H20.1788C20.1548 13.9 20.1428 13.87 20.1428 13.858H20.0888L20.0168 13.678H20.2868C20.2748 13.618 20.2568 13.558 20.2328 13.498C20.2088 13.438 20.1848 13.378 20.1608 13.318H20.0168C20.0048 13.27 19.9928 13.228 19.9808 13.192C19.9688 13.144 19.9568 13.096 19.9448 13.048H19.8368L19.7828 12.868H19.6028L19.5488 12.508H19.7288C19.7168 12.448 19.7048 12.388 19.6928 12.328C19.6928 12.268 19.6928 12.214 19.6928 12.166V12.148H19.3688V12.058H19.2788C19.2788 12.034 19.2728 12.016 19.2608 12.004C19.2608 11.992 19.2608 11.98 19.2608 11.968H20.2688C20.2688 11.932 20.2628 11.902 20.2508 11.878H19.2428V11.608H19.6748V11.518H19.8908V11.338H20.2688V11.158H19.1708C19.1708 11.098 19.1708 11.038 19.1708 10.978C19.1708 10.918 19.1768 10.858 19.1888 10.798H18.9548V10.618H20.7368C20.7488 10.582 20.7548 10.534 20.7548 10.474V10.348H20.2688C20.2688 10.3 20.2688 10.258 20.2688 10.222C20.2808 10.174 20.2868 10.126 20.2868 10.078H20.4668L20.5208 9.718H19.9268C19.9388 9.67 19.9508 9.628 19.9628 9.592C19.9748 9.544 19.9868 9.496 19.9988 9.448H19.8728C19.8968 9.388 19.9148 9.328 19.9268 9.268C19.9508 9.196 19.9748 9.136 19.9988 9.088H20.0168C20.0288 9.064 20.0408 9.034 20.0528 8.998C20.0648 8.962 20.0768 8.932 20.0888 8.908H20.0708C20.0708 8.896 20.0828 8.866 20.1068 8.818H20.1968C20.2448 8.698 20.3108 8.578 20.3948 8.458H20.0348L20.1428 8.278H20.8088C20.8208 8.254 20.8448 8.224 20.8808 8.188H19.5668C19.5908 8.14 19.6208 8.098 19.6568 8.062C19.7048 8.014 19.7468 7.966 19.7828 7.918H20.1968C20.2568 7.858 20.3168 7.798 20.3768 7.738C20.4488 7.666 20.5148 7.606 20.5748 7.558H21.4028C21.5108 7.462 21.6368 7.372 21.7808 7.288H22.1228C22.1708 7.252 22.2188 7.222 22.2668 7.198C22.3268 7.162 22.3808 7.132 22.4288 7.108H21.3668C21.4748 7.048 21.6068 6.988 21.7628 6.928H22.2488C22.5248 6.82 22.8128 6.73 23.1128 6.658H22.5728C23.1608 6.526 23.7848 6.46 24.4448 6.46C25.1048 6.46 25.7288 6.526 26.3168 6.658H26.8748C27.1748 6.73 27.4568 6.82 27.7208 6.928H27.2168C27.3728 6.988 27.5048 7.048 27.6128 7.108H28.6748C28.7348 7.132 28.7888 7.162 28.8368 7.198C28.8968 7.222 28.9508 7.252 28.9988 7.288H28.6568L29.0348 7.558H28.2068C28.2788 7.606 28.3448 7.666 28.4048 7.738C28.4768 7.798 28.5428 7.858 28.6028 7.918H28.1888C28.2248 7.966 28.2608 8.014 28.2968 8.062C28.3448 8.098 28.3808 8.14 28.4048 8.188H29.7368L29.7908 8.278H29.1428L29.2508 8.458H29.6108C29.6948 8.578 29.7608 8.698 29.8088 8.818H29.7188C29.7428 8.866 29.7548 8.896 29.7548 8.908H29.7908L29.8628 9.088H29.8448C29.8688 9.136 29.8928 9.196 29.9168 9.268C29.9408 9.328 29.9588 9.388 29.9708 9.448H30.1508L30.2048 9.718H30.0968C30.1208 9.766 30.1328 9.826 30.1328 9.898C30.1448 9.958 30.1568 10.018 30.1688 10.078H30.3128C30.3248 10.126 30.3308 10.174 30.3308 10.222C30.3308 10.258 30.3368 10.3 30.3488 10.348H29.6468V10.474C29.6468 10.534 29.6528 10.582 29.6648 10.618H29.3048V10.798H31.6268ZM24.7148 10.078C24.7028 10.126 24.6908 10.174 24.6788 10.222C24.6788 10.258 24.6788 10.3 24.6788 10.348H25.1828C25.1708 10.384 25.1648 10.42 25.1648 10.456C25.1648 10.492 25.1648 10.528 25.1648 10.564V10.618H25.2368V10.564C25.2368 10.528 25.2308 10.492 25.2188 10.456C25.2188 10.42 25.2188 10.384 25.2188 10.348H25.9208C25.9208 10.3 25.9148 10.258 25.9028 10.222C25.9028 10.174 25.9028 10.126 25.9028 10.078H25.7588C25.7468 10.006 25.7288 9.94 25.7048 9.88C25.6928 9.82 25.6748 9.766 25.6508 9.718H25.7768C25.7288 9.61 25.6568 9.52 25.5608 9.448H25.3808C25.2608 9.376 25.1048 9.34 24.9128 9.34C24.7208 9.34 24.5708 9.376 24.4628 9.448H24.5888C24.5408 9.484 24.4988 9.526 24.4628 9.574C24.4268 9.61 24.3968 9.658 24.3728 9.718H24.9668C24.9548 9.766 24.9368 9.82 24.9128 9.88C24.9008 9.94 24.8888 10.006 24.8768 10.078H24.7148ZM25.9388 11.158H27.2168V10.798H24.8948C24.8828 10.75 24.8768 10.69 24.8768 10.618H23.3828C23.3828 10.69 23.3768 10.75 23.3648 10.798H23.5988V11.158H24.6968V11.338H24.3008V11.518H24.0848V11.608H23.6528C23.6528 11.656 23.6528 11.704 23.6528 11.752C23.6648 11.788 23.6708 11.83 23.6708 11.878H25.0928V11.608H25.9028V11.518H25.2008V11.338H25.9388V11.158ZM25.6508 12.058V11.968H23.6888V12.058H23.7788V12.076C23.7788 12.088 23.7788 12.1 23.7788 12.112C23.7908 12.124 23.7968 12.136 23.7968 12.148H24.1028C24.1148 12.208 24.1208 12.268 24.1208 12.328C24.1208 12.388 24.1268 12.448 24.1388 12.508H23.9588C23.9828 12.664 24.0068 12.784 24.0308 12.868H24.2288C24.2528 12.94 24.2768 13 24.3008 13.048H24.4268C24.5348 13.216 24.7388 13.3 25.0388 13.3C25.3388 13.3 25.5428 13.216 25.6508 13.048H25.7228C25.7348 13.024 25.7468 13 25.7588 12.976C25.7708 12.94 25.7828 12.904 25.7948 12.868H25.5248C25.5368 12.808 25.5488 12.754 25.5608 12.706C25.5728 12.646 25.5848 12.58 25.5968 12.508H25.7228C25.7348 12.448 25.7408 12.388 25.7408 12.328C25.7408 12.268 25.7468 12.208 25.7588 12.148H25.5968V12.058H25.6508ZM47.2076 11.788H46.8656V11.878H47.1176V12.058H46.4516V12.148H46.9736V12.418H46.7396V12.688H46.8836V12.778H46.7756V12.958H46.8476V13.228H46.8836V13.408H46.8296V13.588H46.8116V13.948H46.9016V14.308H46.6856V14.668H46.6136V14.848H46.8836V15.208H46.5236V15.568H46.8476L46.7936 15.748H47.0996C47.0516 15.832 46.9976 15.892 46.9376 15.928H46.8836C46.8236 15.976 46.7396 16 46.6316 16H43.4636C43.3556 16 43.2716 15.976 43.2116 15.928H43.2476C43.1876 15.892 43.1336 15.832 43.0856 15.748H42.7616L42.7076 15.568H42.3836V15.208H42.7436V14.848H42.4736V14.668H42.5456V14.308H42.7616V13.948H42.6716V13.588H42.6896V13.408H42.7436V13.228H42.7076V12.958H42.6356V12.778H42.7436V12.688H42.5996V12.418H42.8336V12.148H42.3116V12.058H41.0516V12.148H41.2856V12.418H41.2496V12.688H41.4116V12.778H41.3216V12.958H41.2856V13.228H41.2676V13.408H41.2856V13.588H41.3576V13.948H40.6016V14.308H41.5916V14.668H41.3036V14.848H41.2856V15.208H41.1776V15.568H41.2856C41.2856 15.604 41.2796 15.64 41.2676 15.676C41.2556 15.7 41.2436 15.724 41.2316 15.748H41.6276C41.6036 15.784 41.5736 15.82 41.5376 15.856C41.5136 15.88 41.4836 15.904 41.4476 15.928H40.4036C40.3436 15.976 40.2596 16 40.1516 16H36.9836C36.8756 16 36.7916 15.976 36.7316 15.928H37.7756C37.6916 15.892 37.6316 15.832 37.5956 15.748H37.1996L37.1456 15.568H37.0376V15.208H37.1456V14.848H37.1636V14.668H37.4516V14.308H36.4616V13.948H37.2176V13.588H37.1456V13.408H37.1276V13.228H37.1456V12.958H37.1816V12.778H37.2716V12.688H37.1096V12.418H37.1456V12.148H36.9116V12.058H38.2616V11.878H37.4516V11.788H37.5956V11.428H37.1456V11.068H37.1816V10.978H37.0556V10.708H37.2716V10.618H37.1636V10.564C37.1636 10.504 37.1576 10.45 37.1456 10.402C37.1456 10.354 37.1396 10.306 37.1276 10.258H37.2356C37.2356 10.186 37.2176 10.126 37.1816 10.078H37.0376C36.9896 9.97 36.9176 9.88 36.8216 9.808H36.9116C36.8156 9.724 36.6776 9.682 36.4976 9.682C36.3296 9.682 36.1856 9.724 36.0656 9.808C35.9816 9.88 35.9096 9.97 35.8496 10.078H35.7956L35.7416 10.258H35.8496C35.8376 10.306 35.8316 10.354 35.8316 10.402C35.8316 10.45 35.8316 10.504 35.8316 10.564V10.618H35.5796V10.708H35.7416V10.978H35.7056V11.068H35.6336V11.428H35.3636V11.788H35.3096V11.878H36.3176V12.058H36.0476V12.148H35.7056V12.418H35.6696V12.688H35.7956V12.778H35.7596V12.958H35.7236V13.138H35.6516V13.228H35.5976V13.408H35.7416V13.948H35.0936V14.308H35.7596V14.668H35.6876V14.848H35.8136V15.208H35.7596V15.514C35.7596 15.526 35.7536 15.538 35.7416 15.55C35.7416 15.55 35.7416 15.556 35.7416 15.568H35.8316L35.7776 15.748H35.3816C35.3456 15.832 35.2856 15.892 35.2016 15.928H36.4976C36.4376 15.976 36.3536 16 36.2456 16H33.0056C32.8976 16 32.8136 15.976 32.7536 15.928H31.4576C31.3976 15.892 31.3436 15.832 31.2956 15.748H31.6736C31.6616 15.724 31.6496 15.7 31.6376 15.676C31.6256 15.64 31.6196 15.604 31.6196 15.568H31.5476V15.208H31.6016V14.848H31.4756V14.668H31.5476V14.308H30.8816V13.948H31.5296V13.408H31.3856V13.228H31.4396V13.138H31.5116V12.958H31.5476V12.778H31.5836V12.688H31.4576V12.418H31.4936V12.148H31.8356V12.058H32.1056V11.878H31.0976V11.788H31.1516V11.428H31.4216V11.068H31.4936V10.978H31.5296V10.708H31.3676V10.618H31.6196V10.258H31.4936V10.078H31.5476V9.808H31.5656V9.628H31.4576V9.538H31.5296V9.268H31.3676V8.998H31.4936V8.728H31.4756V8.368H31.5116V8.278H31.3676V8.098H31.5836V7.738H31.3856V7.648H31.2776V7.558H30.5396V7.288H29.2076V7.198H30.7736V7.126C30.7736 7.018 30.8036 6.922 30.8636 6.838H31.8716C31.8956 6.802 31.9256 6.772 31.9616 6.748H31.1696C31.2416 6.676 31.3436 6.64 31.4756 6.64H34.4456C34.5656 6.64 34.6676 6.676 34.7516 6.748H35.5436C35.5676 6.76 35.5856 6.772 35.5976 6.784C35.6096 6.796 35.6216 6.814 35.6336 6.838H34.6256C34.6856 6.922 34.7156 7.018 34.7156 7.126V7.198H33.1496V7.288H34.4816V7.558H35.2196V7.648H35.3276V7.72L35.3816 7.648H35.3636C35.3756 7.624 35.3996 7.594 35.4356 7.558H36.1376C36.2096 7.462 36.2996 7.372 36.4076 7.288H36.8576L36.9656 7.198H35.7956C35.8796 7.138 35.9636 7.078 36.0476 7.018C36.1436 6.946 36.2456 6.886 36.3536 6.838H36.5336C36.5576 6.814 36.5816 6.796 36.6056 6.784C36.6416 6.772 36.6776 6.76 36.7136 6.748H37.5236C37.7036 6.664 37.8956 6.598 38.0996 6.55C38.3036 6.502 38.5196 6.472 38.7476 6.46C39.4436 6.436 40.0076 6.532 40.4396 6.748H39.6296C39.6536 6.76 39.6836 6.772 39.7196 6.784C39.7556 6.796 39.7856 6.814 39.8096 6.838H39.6296C39.8096 6.946 39.9656 7.066 40.0976 7.198H42.0056C42.1016 7.126 42.1916 7.06 42.2756 7C42.3716 6.94 42.4676 6.886 42.5636 6.838H41.7716L41.9696 6.748H42.2756C42.4796 6.652 42.6896 6.58 42.9056 6.532C43.1216 6.484 43.3436 6.46 43.5716 6.46C44.0996 6.46 44.5736 6.556 44.9936 6.748H44.6876L44.8856 6.838H45.6776C45.7736 6.886 45.8576 6.94 45.9296 7C46.0136 7.06 46.0976 7.126 46.1816 7.198H43.8776C43.9016 7.21 43.9196 7.222 43.9316 7.234C43.9436 7.246 43.9556 7.264 43.9676 7.288H46.8296L47.0636 7.558H44.1656C44.1776 7.582 44.2016 7.612 44.2376 7.648H46.0736C46.1096 7.684 46.1336 7.714 46.1456 7.738H46.2356C46.2716 7.786 46.3076 7.846 46.3436 7.918C46.3796 7.978 46.4156 8.038 46.4516 8.098H46.2356C46.2596 8.122 46.2776 8.152 46.2896 8.188C46.3016 8.224 46.3136 8.254 46.3256 8.278H46.4516C46.4756 8.326 46.4876 8.356 46.4876 8.368H46.4696C46.4936 8.416 46.5176 8.476 46.5416 8.548C46.5656 8.608 46.5836 8.668 46.5956 8.728H46.6136C46.6256 8.776 46.6376 8.824 46.6496 8.872C46.6616 8.908 46.6736 8.95 46.6856 8.998H46.5596L46.6136 9.268H46.7756C46.7876 9.316 46.7936 9.364 46.7936 9.412C46.7936 9.448 46.7996 9.49 46.8116 9.538H46.7576V9.628H46.8656L46.8836 9.808H46.9196C46.9316 9.856 46.9376 9.904 46.9376 9.952C46.9376 9.988 46.9376 10.03 46.9376 10.078H46.8836V10.258H46.7396V10.618H47.1536V10.708H46.8836V10.978H46.8476V11.428H47.2076V11.788ZM40.9256 7.288C40.9616 7.336 40.9976 7.384 41.0336 7.432C41.0696 7.468 41.0996 7.51 41.1236 7.558H42.1496C42.1976 7.51 42.2456 7.468 42.2936 7.432C42.3416 7.384 42.3896 7.336 42.4376 7.288H40.9256ZM40.5116 7.648L40.5656 7.738H40.7816L40.8716 7.936C40.8956 7.9 40.9196 7.87 40.9436 7.846C40.9676 7.81 40.9916 7.774 41.0156 7.738H40.9256L41.0156 7.648H40.5116ZM42.9776 11.878H42.7256V11.788H43.0676V11.428H42.7076V10.978H42.7436V10.708H43.0136V10.618H42.5996V10.564C42.5996 10.504 42.5996 10.45 42.5996 10.402C42.5996 10.354 42.5936 10.306 42.5816 10.258H42.7256L42.6716 10.078H42.7256C42.6776 9.97 42.6056 9.88 42.5096 9.808H42.4736C42.3776 9.724 42.2396 9.682 42.0596 9.682C41.8916 9.682 41.7476 9.724 41.6276 9.808H41.5376C41.4656 9.868 41.3996 9.958 41.3396 10.078H41.5016C41.4656 10.126 41.4476 10.186 41.4476 10.258H41.3216C41.3096 10.306 41.3036 10.354 41.3036 10.402C41.3036 10.45 41.3036 10.504 41.3036 10.564V10.618H41.4116V10.708H41.1956V10.978H41.3216V11.068H41.2856V11.428H41.7356V11.788H41.5916V11.878H42.4016V12.058H42.9776V11.878ZM48.2962 5.128V4.768H48.2782V4.498H48.4402V4.408H48.5482V4.048H48.4582V3.778H48.4762V3.418H48.5482V3.148H48.5122V2.986C48.5122 2.89 48.5242 2.824 48.5482 2.788H48.7282L48.7822 2.698H48.6382C48.7342 2.566 48.8662 2.5 49.0342 2.5H52.0762C52.2442 2.5 52.3762 2.566 52.4722 2.698H52.6162L52.6702 2.788H52.4722C52.5082 2.836 52.5262 2.902 52.5262 2.986V3.148H52.5622V3.418H52.4902V3.778H52.4722V4.048H52.5622V4.408H52.4542V4.498H52.2922V4.768H52.3102V5.128H52.4362V5.164C52.4362 5.272 52.3942 5.38 52.3102 5.488H52.0942C52.0102 5.596 51.8902 5.65 51.7342 5.65H48.6922C48.5362 5.65 48.4102 5.596 48.3142 5.488H48.5302C48.4582 5.392 48.4222 5.284 48.4222 5.164V5.128H48.2962ZM52.0042 8.908H53.6962V9.268H53.0842V9.448H52.4002V9.808H52.9222V9.898H52.5802V10.078H52.6342V10.258H52.7242V10.528H51.8242V10.798H52.4182V11.068H52.3102V11.248H52.6162V11.518H52.6882V11.788H52.5802V12.058H52.6702V12.238H52.5802V12.598H52.5442V12.868H52.4722V13.138H52.5442V13.318H52.5802V13.678H52.5082V13.858H52.5982V14.038H52.5802V14.308H52.6522V14.578H52.7062V14.668H52.5802V15.028H52.3282V15.388H52.5082V15.514C52.5082 15.574 52.5022 15.622 52.4902 15.658H52.3642C52.3282 15.778 52.2622 15.868 52.1662 15.928H52.5262C52.4662 15.976 52.3762 16 52.2562 16H49.0342C48.9262 16 48.8422 15.976 48.7822 15.928H48.4222C48.3142 15.868 48.2422 15.778 48.2062 15.658H48.3322C48.3202 15.622 48.3142 15.574 48.3142 15.514V15.388H48.1342V15.028H48.3862V14.668H48.5122V14.578H48.4582V14.308H48.3862V14.038H48.4042V13.858H48.3142V13.678H48.3862V13.318H48.3502V13.138H48.2782V12.868H48.3502V12.598H48.3862V12.238H48.4762V12.058H48.3862V11.788H48.4942V11.518H48.4222V11.248H48.1162V11.068H48.2242V10.798H47.6302V10.528H48.5302V10.258H48.4402V10.078H48.3862V9.898H48.7282V9.808H48.2062V9.448H48.8902V9.268H49.5022V8.908H47.8102V8.728H49.3042V8.368H48.7642V8.098H49.0882V7.738H48.5122V7.648H48.3862V7.468H48.2782V7.198H48.4042V7.126C48.4042 6.994 48.4342 6.898 48.4942 6.838H48.5122C48.6082 6.706 48.7402 6.64 48.9082 6.64H52.1302C52.2982 6.64 52.4302 6.706 52.5262 6.838H52.4902C52.5622 6.91 52.5982 7.006 52.5982 7.126V7.198H52.4722V7.468H52.5802V7.648H52.7062V7.738H53.2822V8.098H52.9582V8.368H53.4982V8.728H52.0042V8.908ZM64.3025 13.138H63.5825V13.318H63.6365V13.498H65.8865V13.858H65.0045V14.038H63.7805V14.308H65.6885V14.488H64.6265V14.578H64.4825V14.938H63.8525V15.118H64.4285V15.298H63.9065V15.514C63.9065 15.538 63.9005 15.562 63.8885 15.586C63.8885 15.61 63.8885 15.634 63.8885 15.658H64.3205C64.3205 15.67 64.3085 15.7 64.2845 15.748H64.4285C64.3445 15.916 64.2065 16 64.0145 16H60.9545C60.7745 16 60.6305 15.916 60.5225 15.748H60.3785L60.3245 15.658H59.8925C59.8805 15.634 59.8745 15.604 59.8745 15.568L59.7305 15.658H59.8925L59.7485 15.748H60.3065C60.1145 15.856 59.8985 15.946 59.6585 16.018H59.5685C59.5085 16.03 59.4425 16.042 59.3705 16.054C59.3105 16.078 59.2505 16.096 59.1905 16.108H59.1005C58.9685 16.132 58.8305 16.15 58.6865 16.162C58.5545 16.174 58.4165 16.18 58.2725 16.18C58.1165 16.18 57.9665 16.174 57.8225 16.162C57.6785 16.15 57.5405 16.132 57.4085 16.108H57.4985C57.4385 16.096 57.3725 16.078 57.3005 16.054C57.2285 16.042 57.1625 16.03 57.1025 16.018H57.1925C56.9405 15.946 56.7125 15.856 56.5085 15.748H55.9505L55.7885 15.658H55.6265C55.5425 15.598 55.4585 15.544 55.3745 15.496C55.3025 15.436 55.2305 15.37 55.1585 15.298H55.6985L55.5185 15.118H54.4025L54.2405 14.938H54.8885C54.7925 14.818 54.7085 14.698 54.6365 14.578H54.7805L54.7265 14.488H55.7705C55.7465 14.428 55.7165 14.368 55.6805 14.308H53.7725L53.6645 14.038H54.8705L54.8165 13.858H55.6985L55.5905 13.498H53.3405L53.2865 13.318H53.2505C53.2265 13.246 53.2145 13.186 53.2145 13.138H53.9165C53.9045 13.078 53.8925 13.018 53.8805 12.958C53.8685 12.898 53.8565 12.838 53.8445 12.778H54.9245C54.9125 12.754 54.9065 12.724 54.9065 12.688C54.9065 12.652 54.9065 12.622 54.9065 12.598H54.3485C54.3485 12.55 54.3425 12.508 54.3305 12.472C54.3305 12.424 54.3305 12.376 54.3305 12.328H53.9705C53.9705 12.28 53.9705 12.238 53.9705 12.202C53.9705 12.154 53.9645 12.106 53.9525 12.058H53.9165V11.968C53.9165 11.92 53.9105 11.878 53.8985 11.842C53.8985 11.794 53.8985 11.746 53.8985 11.698H53.6285C53.6165 11.65 53.6105 11.608 53.6105 11.572C53.6105 11.524 53.6105 11.476 53.6105 11.428H53.9525V11.068H54.0425V10.978H54.0785V10.618H54.4565V10.6C54.4565 10.54 54.4565 10.48 54.4565 10.42C54.4565 10.36 54.4625 10.306 54.4745 10.258H53.5025C53.5145 10.21 53.5205 10.168 53.5205 10.132C53.5205 10.084 53.5265 10.036 53.5385 9.988H54.2945V9.898H54.3305C54.3425 9.874 54.3485 9.844 54.3485 9.808C54.3485 9.772 54.3545 9.742 54.3665 9.718H54.4205L54.4745 9.448H54.0785L54.1145 9.358H54.0605C54.0725 9.31 54.0845 9.268 54.0965 9.232C54.1085 9.184 54.1205 9.136 54.1325 9.088H54.2405C54.2645 9.028 54.2825 8.968 54.2945 8.908C54.3185 8.836 54.3425 8.776 54.3665 8.728H54.3305L54.3665 8.638C54.3905 8.578 54.4145 8.518 54.4385 8.458C54.4745 8.386 54.5105 8.326 54.5465 8.278L54.7085 8.008H54.5285L54.6545 7.828H54.4205C54.4685 7.78 54.5165 7.72 54.5645 7.648H55.1945C55.2185 7.624 55.2425 7.594 55.2665 7.558C55.3025 7.522 55.3385 7.492 55.3745 7.468H54.7445C54.8285 7.384 54.8945 7.324 54.9425 7.288H55.5005C55.6325 7.18 55.7585 7.09 55.8785 7.018H55.6805C55.9205 6.874 56.1785 6.754 56.4545 6.658H56.1845C56.6165 6.526 57.0545 6.46 57.4985 6.46C57.9545 6.46 58.3805 6.526 58.7765 6.658H59.0465C59.3105 6.742 59.5565 6.862 59.7845 7.018H60.7385V6.658H60.3425V6.298H60.8825V6.028H60.8645V5.668H60.0725V5.488H60.2345V5.308H60.3605V5.218H60.2525V5.128H60.1985V5.038H60.1805V4.948H60.1265V4.858H60.0905V4.498H59.7125V4.138H60.1265V4.048H60.1805V3.688C60.1805 3.64 60.1925 3.58 60.2165 3.508H60.3965C60.4805 3.316 60.6305 3.22 60.8465 3.22H64.1765C64.3925 3.22 64.5425 3.316 64.6265 3.508H64.4285C64.4645 3.556 64.4825 3.622 64.4825 3.706V4.048H64.4285V4.138H64.0145V4.498H64.3925V4.858H64.4285V4.948H64.4825V5.038H64.5005V5.128H64.5545V5.218H64.6625V5.308H64.5365V5.488H64.3745V5.668H65.1665V6.028H65.1845V6.298H64.6445V6.658H65.0405V7.018H64.1765V7.288H64.0865V7.468H64.7165V7.648H64.0865V7.828H64.3025V8.008H64.5005V8.278H64.4825V8.728H64.5185V9.088H64.4105V9.358H64.4465V9.448H64.8425V9.718H65.2745V9.898H64.7705V9.988H64.4465V10.258H64.7885V10.618H63.6905V10.978H63.8165V11.068H64.3565V11.158H64.5185V11.428H64.3385V11.698H64.5905V11.968H64.6085V12.058H64.4105V12.328H64.5545V12.598H66.0845V12.778H64.3025V13.138ZM59.4425 12.598C59.4665 12.634 59.4905 12.67 59.5145 12.706C59.5385 12.73 59.5625 12.754 59.5865 12.778H58.5065C58.6505 12.898 58.8485 12.958 59.1005 12.958C59.3405 12.958 59.5385 12.898 59.6945 12.778H61.4765C61.5005 12.754 61.5245 12.73 61.5485 12.706C61.5845 12.67 61.6085 12.634 61.6205 12.598H60.0905C60.1265 12.526 60.1625 12.436 60.1985 12.328H60.0545C60.0665 12.28 60.0725 12.238 60.0725 12.202C60.0845 12.154 60.0905 12.106 60.0905 12.058H60.3065V11.968H60.2885V11.914C60.2885 11.878 60.2885 11.842 60.2885 11.806C60.2885 11.77 60.2945 11.734 60.3065 11.698H60.0545V11.428H60.2345V11.158H60.0905V11.068H59.5325V10.978H59.4245C59.4125 10.918 59.4065 10.858 59.4065 10.798C59.4065 10.738 59.4005 10.678 59.3885 10.618H60.4865V10.582C60.4745 10.45 60.4565 10.342 60.4325 10.258H60.0905C60.0545 10.138 60.0125 10.048 59.9645 9.988H60.2885C60.2765 9.964 60.2525 9.934 60.2165 9.898H60.7205C60.6365 9.814 60.5285 9.754 60.3965 9.718H59.9645C59.9165 9.706 59.8625 9.7 59.8025 9.7C59.7545 9.688 59.7005 9.682 59.6405 9.682C59.5805 9.682 59.5265 9.688 59.4785 9.7C59.4305 9.7 59.3825 9.706 59.3345 9.718H59.2805C59.1485 9.754 59.0405 9.814 58.9565 9.898H58.9205C58.9085 9.922 58.8845 9.952 58.8485 9.988H58.1105C58.0625 10.048 58.0205 10.138 57.9845 10.258H58.9385C58.9265 10.306 58.9145 10.366 58.9025 10.438C58.8905 10.498 58.8785 10.558 58.8665 10.618H58.5065V10.726C58.4945 10.762 58.4885 10.804 58.4885 10.852C58.4885 10.888 58.4825 10.93 58.4705 10.978H58.4345V11.068H58.3625V11.158C58.3505 11.242 58.3505 11.332 58.3625 11.428H58.0205V11.698H58.3085C58.3085 11.734 58.3085 11.77 58.3085 11.806C58.3085 11.842 58.3145 11.878 58.3265 11.914V11.968C58.3385 11.992 58.3445 12.022 58.3445 12.058H58.3805L58.4345 12.328H58.7945C58.8185 12.436 58.8545 12.526 58.9025 12.598H59.4425ZM75.5369 15.028V15.208H77.1029V15.514C77.1029 15.538 77.0969 15.556 77.0849 15.568H76.2389C76.2149 15.736 76.1369 15.856 76.0049 15.928H75.8429C75.7829 15.976 75.6989 16 75.5909 16H72.4409C72.3329 16 72.2489 15.976 72.1889 15.928H72.3329C72.2129 15.844 72.1409 15.724 72.1169 15.568H72.9809V15.208H72.2609C72.2009 15.268 72.1349 15.328 72.0629 15.388C72.0029 15.448 71.9369 15.508 71.8649 15.568H71.6669C71.4509 15.724 71.2349 15.844 71.0189 15.928H70.4429C70.3589 15.964 70.2629 15.994 70.1549 16.018C70.0589 16.054 69.9569 16.084 69.8489 16.108H69.7049C69.5849 16.132 69.4589 16.15 69.3269 16.162C69.2069 16.174 69.0809 16.18 68.9489 16.18C68.8049 16.18 68.6609 16.174 68.5169 16.162C68.3849 16.15 68.2529 16.132 68.1209 16.108H68.2649C68.1449 16.084 68.0249 16.054 67.9049 16.018C67.7969 15.994 67.6889 15.964 67.5809 15.928H68.1389C67.8749 15.832 67.6349 15.712 67.4189 15.568H67.6169C67.5329 15.508 67.4549 15.448 67.3829 15.388C67.3109 15.328 67.2389 15.268 67.1669 15.208H66.2669L66.1049 15.028C66.0929 15.004 66.0749 14.974 66.0509 14.938C66.0269 14.902 66.0029 14.872 65.9789 14.848H66.5189C66.4949 14.8 66.4649 14.758 66.4289 14.722C66.4049 14.674 66.3809 14.626 66.3569 14.578H66.1949C66.1949 14.566 66.1829 14.536 66.1589 14.488H65.9969L65.9429 14.398H65.9609L65.8529 14.128H65.7629C65.7509 14.08 65.7389 14.038 65.7269 14.002C65.7149 13.954 65.7029 13.906 65.6909 13.858H65.0069C64.9709 13.726 64.9529 13.606 64.9529 13.498H65.5469V13.318C65.5469 13.258 65.5469 13.198 65.5469 13.138C65.5469 13.066 65.5529 13.006 65.5649 12.958H66.1049C66.1169 12.898 66.1289 12.838 66.1409 12.778C66.1529 12.706 66.1649 12.646 66.1769 12.598H65.6729L65.7089 12.508H65.7269L65.7629 12.418H65.7449C65.7689 12.37 65.7929 12.328 65.8169 12.292C65.8409 12.244 65.8589 12.196 65.8709 12.148H64.8089L64.9169 11.968H64.5209C64.5569 11.932 64.5809 11.902 64.5929 11.878H65.2409C65.2649 11.854 65.2889 11.824 65.3129 11.788C65.3369 11.752 65.3609 11.722 65.3849 11.698H65.4209C65.5409 11.554 65.6669 11.434 65.7989 11.338H64.3229C64.4069 11.278 64.4969 11.218 64.5929 11.158C64.6769 11.086 64.7669 11.026 64.8629 10.978H65.8529L66.0149 10.888H66.5189C66.5429 10.864 66.5729 10.846 66.6089 10.834C66.6449 10.822 66.6749 10.81 66.6989 10.798H66.9149C67.1309 10.69 67.3649 10.6 67.6169 10.528H68.7149C68.8829 10.468 69.0509 10.42 69.2189 10.384C69.3989 10.336 69.5849 10.294 69.7769 10.258H69.3269L69.6149 10.204L71.5229 9.898V9.808H72.4409V9.718H70.7129V9.628H71.7389C71.7389 9.568 71.7389 9.52 71.7389 9.484C71.7389 9.436 71.7329 9.394 71.7209 9.358C71.7089 9.25 71.6669 9.16 71.5949 9.088H71.2889C71.2769 9.076 71.2469 9.058 71.1989 9.034L71.0729 9.088H70.7669C70.7189 9.124 70.6709 9.166 70.6229 9.214C70.5749 9.25 70.5209 9.298 70.4609 9.358H70.4789C70.3469 9.49 70.1789 9.556 69.9749 9.556H66.9149C66.7349 9.556 66.6149 9.49 66.5549 9.358H66.5369C66.5009 9.298 66.4889 9.232 66.5009 9.16V9.088H66.7889C66.8009 9.064 66.8069 9.034 66.8069 8.998H65.6549C65.6549 8.95 65.6669 8.89 65.6909 8.818H68.2829C68.2829 8.806 68.2949 8.776 68.3189 8.728H66.7169C66.7529 8.608 66.8069 8.488 66.8789 8.368H67.1849C67.2209 8.308 67.2629 8.248 67.3109 8.188C67.3589 8.128 67.4069 8.068 67.4549 8.008H66.1049L66.2669 7.828H68.8769C68.9249 7.78 68.9729 7.738 69.0209 7.702C69.0809 7.654 69.1349 7.606 69.1829 7.558H67.5269L67.6349 7.468H67.1309C67.1909 7.42 67.2569 7.378 67.3289 7.342C67.4009 7.294 67.4729 7.246 67.5449 7.198H68.3909C68.6429 7.054 68.9069 6.934 69.1829 6.838H69.3089C69.6329 6.718 69.9929 6.628 70.3889 6.568C70.7969 6.496 71.2409 6.46 71.7209 6.46C72.7049 6.46 73.5389 6.586 74.2229 6.838H74.0789C74.2109 6.886 74.3369 6.94 74.4569 7C74.5889 7.06 74.7149 7.126 74.8349 7.198H73.9889L74.3669 7.468H74.8709L74.9789 7.558H76.6349L76.9049 7.828H74.2949C74.3189 7.852 74.3429 7.882 74.3669 7.918C74.3909 7.954 74.4149 7.984 74.4389 8.008H75.7709C75.8189 8.056 75.8609 8.116 75.8969 8.188C75.9449 8.248 75.9809 8.308 76.0049 8.368H75.7169L75.8789 8.728H77.4809C77.5049 8.776 77.5169 8.806 77.5169 8.818H74.9249C74.9489 8.842 74.9609 8.872 74.9609 8.908C74.9729 8.944 74.9849 8.974 74.9969 8.998H75.5909C75.5909 9.01 75.5909 9.022 75.5909 9.034C75.6029 9.046 75.6089 9.064 75.6089 9.088H75.9149L76.0229 9.628H74.9789C74.9789 9.64 74.9789 9.652 74.9789 9.664C74.9909 9.676 74.9969 9.694 74.9969 9.718H76.7249V9.808H75.8249V9.898C75.8369 9.958 75.8429 10.018 75.8429 10.078C75.8429 10.138 75.8429 10.198 75.8429 10.258H76.3109V10.528H75.1949V10.798H74.9969V10.888H74.5109V10.978H73.5209V11.338H74.9969V11.698H74.9609V11.878H74.3129V11.968H74.7089V12.148H75.8969V12.418H75.6809V12.598H75.8249V12.958H75.7169V13.498H75.1229V13.858H75.8069V14.128H75.8969V14.488H76.0589V14.578H76.2029V14.848H75.6449V15.028H75.5369ZM70.3169 8.98C70.2329 8.98 70.1729 8.986 70.1369 8.998H70.5149C70.4789 8.986 70.4129 8.98 70.3169 8.98ZM70.4429 12.112L70.2809 12.148H70.4429V12.112ZM69.8309 12.598H70.3349C70.2029 12.694 70.1369 12.814 70.1369 12.958H69.5969V13.012C69.5969 13.132 69.6389 13.234 69.7229 13.318C69.7829 13.402 69.9029 13.462 70.0829 13.498H70.5149C70.6949 13.462 70.8509 13.402 70.9829 13.318C71.0909 13.222 71.1929 13.102 71.2889 12.958H71.3789C71.4029 12.898 71.4269 12.844 71.4509 12.796C71.4749 12.736 71.4929 12.67 71.5049 12.598H71.3609C71.3609 12.574 71.3609 12.556 71.3609 12.544C71.3729 12.532 71.3789 12.52 71.3789 12.508H71.3969V12.418H71.6129C71.6249 12.37 71.6309 12.328 71.6309 12.292C71.6309 12.244 71.6309 12.196 71.6309 12.148H71.3249L70.4429 12.346C70.3949 12.358 70.3469 12.37 70.2989 12.382C70.2629 12.394 70.2269 12.406 70.1909 12.418C70.1549 12.43 70.1189 12.442 70.0829 12.454C70.0469 12.466 70.0169 12.484 69.9929 12.508H69.9749C69.9509 12.52 69.9269 12.532 69.9029 12.544C69.8789 12.556 69.8549 12.574 69.8309 12.598ZM69.9209 13.498H69.4709C69.5189 13.51 69.5909 13.516 69.6869 13.516C69.7229 13.516 69.7589 13.516 69.7949 13.516C69.8429 13.516 69.8849 13.51 69.9209 13.498ZM105.767 11.068V11.248H108.053V11.428H106.667V11.608H106.019V11.788H106.577V11.896C106.577 11.968 106.571 12.022 106.559 12.058H106.811C106.727 12.274 106.571 12.382 106.343 12.382H100.979V12.418H101.699V12.472C101.699 12.52 101.699 12.574 101.699 12.634C101.699 12.682 101.705 12.73 101.717 12.778H100.745C100.745 12.814 100.745 12.85 100.745 12.886C100.757 12.91 100.763 12.934 100.763 12.958H100.655C100.655 13.006 100.667 13.066 100.691 13.138H100.763C100.823 13.306 100.919 13.426 101.051 13.498H100.565C100.649 13.546 100.763 13.57 100.907 13.57C101.003 13.57 101.081 13.546 101.141 13.498H101.987C102.035 13.474 102.077 13.438 102.113 13.39C102.161 13.342 102.215 13.294 102.275 13.246L102.383 13.138H102.041C102.149 13.042 102.311 12.994 102.527 12.994H105.929C106.073 12.994 106.181 13.042 106.253 13.138H106.577C106.637 13.222 106.667 13.306 106.667 13.39C106.655 13.414 106.649 13.45 106.649 13.498H105.803C105.779 13.618 105.743 13.738 105.695 13.858H104.813C104.777 13.918 104.747 13.978 104.723 14.038H106.955C106.931 14.098 106.895 14.158 106.847 14.218C106.811 14.278 106.769 14.338 106.721 14.398H106.181C106.133 14.47 106.085 14.53 106.037 14.578H106.163C106.151 14.59 106.139 14.602 106.127 14.614C106.115 14.626 106.103 14.644 106.091 14.668H105.083L104.993 14.758H105.299C105.287 14.77 105.269 14.782 105.245 14.794C105.233 14.806 105.221 14.824 105.209 14.848H105.767C105.683 14.932 105.575 15.022 105.443 15.118H105.173C105.161 15.13 105.143 15.142 105.119 15.154C105.095 15.166 105.071 15.184 105.047 15.208H104.849C104.657 15.34 104.447 15.46 104.219 15.568H103.985C103.841 15.64 103.685 15.706 103.517 15.766C103.361 15.826 103.193 15.88 103.013 15.928H102.725C102.593 15.964 102.455 15.994 102.311 16.018C102.167 16.054 102.011 16.084 101.843 16.108H102.599C102.431 16.132 102.257 16.15 102.077 16.162C101.897 16.174 101.705 16.18 101.501 16.18C101.309 16.18 101.117 16.174 100.925 16.162C100.733 16.15 100.547 16.132 100.367 16.108H99.6109C99.4549 16.084 99.3049 16.054 99.1609 16.018C99.0169 15.994 98.8729 15.964 98.7289 15.928H99.0169C98.6929 15.844 98.3869 15.724 98.0989 15.568H98.3329C98.1169 15.448 97.9309 15.328 97.7749 15.208H97.9729C97.9489 15.184 97.9249 15.166 97.9009 15.154C97.8889 15.142 97.8709 15.13 97.8469 15.118H98.1169C98.0689 15.07 98.0209 15.028 97.9729 14.992C97.9249 14.944 97.8769 14.896 97.8289 14.848H97.2529L97.1629 14.758H96.8569C96.8449 14.734 96.8329 14.716 96.8209 14.704C96.8089 14.692 96.7969 14.68 96.7849 14.668H97.7749C97.7629 14.644 97.7389 14.614 97.7029 14.578H97.5769C97.5529 14.554 97.5289 14.524 97.5049 14.488C97.4809 14.452 97.4569 14.422 97.4329 14.398H97.9729C97.9369 14.338 97.9009 14.278 97.8649 14.218C97.8289 14.158 97.7929 14.098 97.7569 14.038H95.5069C95.4709 13.978 95.4409 13.918 95.4169 13.858H96.2989L96.1369 13.498H96.6229C96.5989 13.438 96.5749 13.378 96.5509 13.318C96.5389 13.258 96.5209 13.198 96.4969 13.138H96.4429L96.3889 12.958H96.5149L96.4609 12.778H97.4329C97.4209 12.718 97.4089 12.658 97.3969 12.598C97.3849 12.538 97.3729 12.478 97.3609 12.418H96.6409L96.6049 12.058H96.3529C96.3529 12.01 96.3469 11.968 96.3349 11.932C96.3349 11.884 96.3349 11.836 96.3349 11.788H95.7769V11.608H96.4069V11.428H97.7929V11.248H95.5069V11.212C95.5069 11.152 95.5129 11.104 95.5249 11.068H98.6389C98.6389 11.02 98.6389 10.978 98.6389 10.942C98.6509 10.894 98.6569 10.846 98.6569 10.798H95.7949C95.7949 10.774 95.7949 10.756 95.7949 10.744C95.8069 10.732 95.8129 10.72 95.8129 10.708H97.0009C97.0009 10.672 97.0069 10.642 97.0189 10.618H98.3509V10.528H95.8129C95.8249 10.468 95.8369 10.408 95.8489 10.348C95.8609 10.288 95.8729 10.228 95.8849 10.168H96.5689C96.5689 10.12 96.5809 10.06 96.6049 9.988H96.0109C96.0109 9.964 96.0109 9.946 96.0109 9.934C96.0229 9.922 96.0289 9.91 96.0289 9.898H96.4609C96.4609 9.874 96.4609 9.856 96.4609 9.844C96.4729 9.832 96.4789 9.82 96.4789 9.808H96.0289L96.0649 9.718H96.4969L96.5509 9.538H96.8929L97.0009 9.268H96.6769C96.7009 9.208 96.7249 9.148 96.7489 9.088C96.7729 9.016 96.8029 8.956 96.8389 8.908H96.7849L96.8209 8.818H96.3709C96.3949 8.77 96.4069 8.74 96.4069 8.728H95.9929L96.1009 8.548H96.9829C96.9949 8.524 97.0189 8.494 97.0549 8.458H97.3789C97.4269 8.398 97.4689 8.338 97.5049 8.278C97.5529 8.206 97.6009 8.146 97.6489 8.098H97.3249C97.3609 8.05 97.3969 8.008 97.4329 7.972C97.4809 7.924 97.5289 7.876 97.5769 7.828H98.2789L98.4589 7.648H97.3969C97.5529 7.516 97.7089 7.396 97.8649 7.288H98.8549L98.9989 7.198H98.6749C98.7709 7.138 98.8849 7.078 99.0169 7.018H99.7189C100.043 6.862 100.379 6.742 100.727 6.658H99.7189C99.9829 6.598 100.259 6.55 100.547 6.514C100.835 6.478 101.135 6.46 101.447 6.46C101.759 6.46 102.053 6.478 102.329 6.514C102.605 6.55 102.869 6.598 103.121 6.658H104.111C104.291 6.706 104.459 6.76 104.615 6.82C104.783 6.88 104.945 6.946 105.101 7.018H104.399C104.459 7.042 104.513 7.072 104.561 7.108C104.621 7.132 104.675 7.162 104.723 7.198H105.047C105.071 7.21 105.095 7.222 105.119 7.234C105.143 7.246 105.167 7.264 105.191 7.288H104.201C104.357 7.396 104.513 7.516 104.669 7.648H105.749L105.929 7.828H105.227C105.275 7.876 105.317 7.924 105.353 7.972C105.401 8.008 105.443 8.05 105.479 8.098H105.803C105.851 8.146 105.893 8.206 105.929 8.278C105.977 8.338 106.025 8.398 106.073 8.458H105.731C105.743 8.482 105.767 8.512 105.803 8.548H104.903L105.011 8.728H105.425L105.479 8.818H105.947C105.947 8.83 105.959 8.86 105.983 8.908H106.037L106.199 9.268L106.307 9.538H106.325L106.379 9.718H106.163L106.199 9.808H106.361L106.397 9.898H106.685C106.685 9.91 106.685 9.922 106.685 9.934C106.697 9.946 106.703 9.964 106.703 9.988H106.559L106.613 10.168H105.929L105.983 10.528H108.521V10.618H107.189C107.189 10.63 107.189 10.642 107.189 10.654C107.201 10.666 107.207 10.684 107.207 10.708H106.001C106.013 10.732 106.019 10.762 106.019 10.798H108.881C108.881 10.846 108.881 10.894 108.881 10.942C108.881 10.978 108.887 11.02 108.899 11.068H105.767ZM100.295 9.898V9.988H100.871V10.132H102.311V9.988H102.437V9.898H102.149V9.808H101.969C101.969 9.772 101.963 9.742 101.951 9.718H102.167C102.167 9.67 102.155 9.61 102.131 9.538H102.113C102.101 9.43 102.065 9.34 102.005 9.268C101.885 9.076 101.699 8.98 101.447 8.98C101.207 8.98 101.027 9.076 100.907 9.268H101.231C101.183 9.34 101.147 9.43 101.123 9.538H100.763C100.763 9.562 100.757 9.592 100.745 9.628C100.745 9.652 100.739 9.682 100.727 9.718H100.295C100.295 9.754 100.289 9.784 100.277 9.808H100.727V9.898H100.295ZM118.314 15.658H118.89V15.928H118.44V16.018H118.566C118.554 16.066 118.548 16.108 118.548 16.144C118.548 16.192 118.542 16.24 118.53 16.288H118.512V16.378H117.666C117.654 16.402 117.648 16.432 117.648 16.468C117.648 16.504 117.642 16.534 117.63 16.558H118.674C118.662 16.618 118.65 16.678 118.638 16.738C118.626 16.798 118.614 16.858 118.602 16.918H118.314C118.302 16.966 118.29 17.008 118.278 17.044C118.266 17.092 118.248 17.14 118.224 17.188H117.63L117.558 17.368H117.864L117.792 17.548H117.828C117.804 17.608 117.774 17.668 117.738 17.728H117.756L117.594 17.998C117.582 18.01 117.57 18.022 117.558 18.034C117.558 18.046 117.552 18.064 117.54 18.088C117.516 18.136 117.486 18.178 117.45 18.214C117.414 18.262 117.378 18.31 117.342 18.358H117.306L117.216 18.448H117.558L117.396 18.628H116.982C116.946 18.652 116.91 18.682 116.874 18.718C116.838 18.754 116.808 18.784 116.784 18.808H117.27C117.222 18.856 117.162 18.898 117.09 18.934C117.03 18.982 116.97 19.03 116.91 19.078H117.558C117.486 19.126 117.408 19.168 117.324 19.204C117.252 19.252 117.174 19.3 117.09 19.348H116.91C116.85 19.384 116.784 19.414 116.712 19.438C116.64 19.474 116.574 19.504 116.514 19.528H115.488C115.26 19.612 115.026 19.684 114.786 19.744C114.546 19.804 114.3 19.852 114.048 19.888H115.11C114.93 19.912 114.744 19.93 114.552 19.942C114.36 19.954 114.168 19.96 113.976 19.96C113.772 19.96 113.568 19.954 113.364 19.942C113.172 19.93 112.986 19.912 112.806 19.888H111.744C111.204 19.816 110.706 19.696 110.25 19.528H111.276C111.204 19.504 111.132 19.474 111.06 19.438C110.988 19.414 110.916 19.384 110.844 19.348H111.024C110.94 19.3 110.856 19.252 110.772 19.204C110.688 19.168 110.604 19.126 110.52 19.078H109.89C109.818 19.03 109.746 18.982 109.674 18.934C109.614 18.898 109.554 18.856 109.494 18.808H109.008C108.912 18.736 108.84 18.676 108.792 18.628H109.206C109.17 18.604 109.134 18.574 109.098 18.538C109.062 18.502 109.032 18.472 109.008 18.448H108.666C108.654 18.424 108.642 18.406 108.63 18.394C108.618 18.382 108.6 18.37 108.576 18.358H108.63C108.582 18.31 108.54 18.262 108.504 18.214C108.468 18.178 108.432 18.136 108.396 18.088H108.378C108.366 18.064 108.342 18.034 108.306 17.998H108.324C108.288 17.95 108.252 17.902 108.216 17.854C108.18 17.818 108.15 17.776 108.126 17.728L108.018 17.548H107.982C107.97 17.524 107.958 17.494 107.946 17.458C107.934 17.422 107.916 17.392 107.892 17.368H107.586L107.514 17.188H108.126C108.114 17.14 108.096 17.092 108.072 17.044C108.06 17.008 108.048 16.966 108.036 16.918H107.928C107.928 16.882 107.922 16.846 107.91 16.81C107.91 16.786 107.91 16.762 107.91 16.738C107.91 16.654 107.916 16.594 107.928 16.558H107.874C107.91 16.486 107.952 16.426 108 16.378H107.892C107.964 16.33 108.018 16.3 108.054 16.288H108.288C108.36 16.264 108.426 16.252 108.486 16.252H111.996C112.056 16.252 112.122 16.264 112.194 16.288H111.942C112.002 16.3 112.05 16.33 112.086 16.378H112.194C112.242 16.426 112.284 16.486 112.32 16.558H112.374L112.41 16.612C112.494 16.756 112.572 16.858 112.644 16.918H112.734C112.866 17.014 113.046 17.062 113.274 17.062C113.454 17.062 113.61 17.014 113.742 16.918H114.03C114.138 16.834 114.216 16.714 114.264 16.558H113.22C113.244 16.486 113.256 16.426 113.256 16.378H114.102C114.114 16.354 114.12 16.324 114.12 16.288H114.138C114.15 16.24 114.156 16.192 114.156 16.144C114.156 16.108 114.156 16.066 114.156 16.018H114.048V15.928H114.48V15.658H113.904V15.568H113.562V15.478H113.886V15.118H113.544V15.01L113.364 15.118H113.346C113.058 15.286 112.746 15.406 112.41 15.478H112.482C112.386 15.49 112.29 15.508 112.194 15.532C112.098 15.544 111.996 15.556 111.888 15.568H111.438C111.366 15.58 111.294 15.586 111.222 15.586C111.15 15.586 111.078 15.586 111.006 15.586C110.922 15.586 110.838 15.586 110.754 15.586C110.67 15.586 110.592 15.58 110.52 15.568H110.952C110.844 15.556 110.736 15.544 110.628 15.532C110.52 15.508 110.412 15.49 110.304 15.478H110.25C110.07 15.442 109.896 15.394 109.728 15.334C109.572 15.274 109.416 15.202 109.26 15.118H109.278C109.23 15.094 109.182 15.07 109.134 15.046C109.086 15.01 109.038 14.974 108.99 14.938H109.404C109.332 14.878 109.26 14.818 109.188 14.758C109.128 14.698 109.068 14.638 109.008 14.578H107.55L107.46 14.488H108.288C108.192 14.368 108.108 14.248 108.036 14.128H108.27C108.186 14.008 108.12 13.888 108.072 13.768H108.036C107.976 13.636 107.928 13.516 107.892 13.408H106.578C106.578 13.384 106.578 13.366 106.578 13.354C106.566 13.342 106.56 13.33 106.56 13.318H107.784L107.73 13.138H107.82C107.808 13.078 107.79 13.018 107.766 12.958C107.754 12.898 107.742 12.838 107.73 12.778H107.946L107.892 12.418H107.658L107.64 12.238H107.208C107.196 12.178 107.19 12.118 107.19 12.058C107.19 11.998 107.184 11.938 107.172 11.878H107.01C107.01 11.83 107.01 11.788 107.01 11.752C106.998 11.704 106.992 11.656 106.992 11.608H107.244V11.428H107.568C107.568 11.38 107.562 11.338 107.55 11.302C107.55 11.254 107.55 11.206 107.55 11.158H107.712V10.888H107.424C107.424 10.84 107.424 10.798 107.424 10.762C107.424 10.714 107.43 10.666 107.442 10.618H107.478V10.6C107.478 10.552 107.478 10.51 107.478 10.474C107.49 10.438 107.496 10.396 107.496 10.348H107.568C107.58 10.3 107.586 10.258 107.586 10.222C107.586 10.174 107.592 10.126 107.604 10.078C107.616 10.054 107.622 10.024 107.622 9.988C107.622 9.952 107.628 9.922 107.64 9.898H107.55V9.808H107.658C107.67 9.748 107.682 9.688 107.694 9.628C107.706 9.556 107.718 9.496 107.73 9.448H107.712C107.724 9.4 107.736 9.358 107.748 9.322C107.76 9.274 107.772 9.226 107.784 9.178H107.928C107.952 9.118 107.97 9.058 107.982 8.998C108.006 8.926 108.03 8.866 108.054 8.818H108.144L108.18 8.728H107.928C107.94 8.704 107.952 8.674 107.964 8.638C107.976 8.602 107.988 8.572 108 8.548L108.108 8.278C108.12 8.254 108.126 8.236 108.126 8.224C108.138 8.212 108.15 8.2 108.162 8.188L108.216 8.098C108.24 8.074 108.258 8.044 108.27 8.008C108.294 7.972 108.318 7.942 108.342 7.918C108.354 7.894 108.366 7.876 108.378 7.864C108.39 7.852 108.402 7.84 108.414 7.828H108.378L108.594 7.558C108.63 7.534 108.66 7.504 108.684 7.468C108.72 7.432 108.75 7.402 108.774 7.378H108.81C108.822 7.354 108.834 7.336 108.846 7.324C108.87 7.312 108.888 7.3 108.9 7.288H109.098C109.17 7.216 109.248 7.156 109.332 7.108H108.882C108.93 7.072 108.978 7.042 109.026 7.018C109.074 6.982 109.122 6.952 109.17 6.928H109.296C109.464 6.832 109.668 6.742 109.908 6.658H110.502C110.934 6.526 111.396 6.46 111.888 6.46C112.32 6.46 112.722 6.526 113.094 6.658H112.5C112.692 6.718 112.884 6.808 113.076 6.928H112.968C113.016 6.952 113.058 6.982 113.094 7.018C113.142 7.042 113.19 7.072 113.238 7.108H113.67C113.718 7.132 113.76 7.162 113.796 7.198C113.832 7.234 113.868 7.264 113.904 7.288H113.706L113.796 7.378H113.778L113.94 7.558C113.964 7.57 113.982 7.588 113.994 7.612C114.018 7.636 114.036 7.66 114.048 7.684V7.558H114.12V7.378H114.426V7.288H114.624V7.108H113.742C113.742 7.036 113.76 6.976 113.796 6.928H114.102C114.162 6.784 114.264 6.694 114.408 6.658H114.048C114.084 6.646 114.132 6.64 114.192 6.64H117.342C117.402 6.64 117.444 6.646 117.468 6.658H117.828C117.972 6.694 118.074 6.784 118.134 6.928H117.828C117.852 7 117.864 7.06 117.864 7.108H118.746V7.288H118.548V7.378H118.242V7.558H118.17V7.828H118.188V8.098H118.17V8.548H118.188V8.728H118.44V8.818H118.332V9.178H118.17L118.188 9.448V9.898H118.134V10.078H118.08V10.348H118.188V10.618H118.404V10.888H118.026V11.158H118.152V11.428H118.188V11.608H117.594L117.612 11.878H117.684V12.238H118.08V12.418H118.404V12.778H118.17V13.138H118.098V13.318H116.856V13.408H118.17V13.768H118.206V14.128H117.954L117.972 14.488H117.144V14.578H118.602V14.938H117.954V15.118H118.296V15.478H117.972V15.568H118.314V15.658ZM112.248 12.238C112.332 12.322 112.44 12.382 112.572 12.418H112.788C112.836 12.43 112.884 12.442 112.932 12.454C112.992 12.454 113.046 12.454 113.094 12.454C113.154 12.454 113.208 12.454 113.256 12.454C113.316 12.442 113.37 12.43 113.418 12.418H113.094C113.226 12.382 113.334 12.322 113.418 12.238H113.022C113.118 12.142 113.184 12.022 113.22 11.878H113.148L113.202 11.608H113.778C113.778 11.584 113.784 11.566 113.796 11.554V11.428H113.76V11.158H113.652V10.888H114.012V10.618H113.778V10.582C113.778 10.534 113.772 10.492 113.76 10.456C113.76 10.42 113.754 10.384 113.742 10.348H113.652C113.64 10.252 113.61 10.162 113.562 10.078H113.598C113.562 10.006 113.52 9.946 113.472 9.898H113.526C113.478 9.85 113.442 9.82 113.418 9.808C113.298 9.724 113.124 9.682 112.896 9.682C112.668 9.682 112.494 9.724 112.374 9.808H112.266C112.242 9.82 112.206 9.85 112.158 9.898H112.248C112.2 9.946 112.158 10.006 112.122 10.078H112.104C112.092 10.114 112.08 10.156 112.068 10.204C112.056 10.24 112.038 10.288 112.014 10.348H111.942C111.93 10.396 111.918 10.444 111.906 10.492C111.906 10.528 111.906 10.57 111.906 10.618H111.852V10.726C111.84 10.762 111.834 10.816 111.834 10.888H112.122V11.158H111.96C111.96 11.206 111.96 11.254 111.96 11.302C111.972 11.338 111.978 11.374 111.978 11.41V11.428H111.654L111.672 11.608H111.42L111.474 11.878H111.636C111.672 12.022 111.738 12.142 111.834 12.238H112.248ZM114.03 14.938H114.192V14.812L114.03 14.938ZM129.24 15.028V15.208H130.806V15.514C130.806 15.538 130.8 15.556 130.788 15.568H129.942C129.918 15.736 129.84 15.856 129.708 15.928H129.546C129.486 15.976 129.402 16 129.294 16H126.144C126.036 16 125.952 15.976 125.892 15.928H126.036C125.916 15.844 125.844 15.724 125.82 15.568H126.684V15.208H125.964C125.904 15.268 125.838 15.328 125.766 15.388C125.706 15.448 125.64 15.508 125.568 15.568H125.37C125.154 15.724 124.938 15.844 124.722 15.928H124.146C124.062 15.964 123.966 15.994 123.858 16.018C123.762 16.054 123.66 16.084 123.552 16.108H123.408C123.288 16.132 123.162 16.15 123.03 16.162C122.91 16.174 122.784 16.18 122.652 16.18C122.508 16.18 122.364 16.174 122.22 16.162C122.088 16.15 121.956 16.132 121.824 16.108H121.968C121.848 16.084 121.728 16.054 121.608 16.018C121.5 15.994 121.392 15.964 121.284 15.928H121.842C121.578 15.832 121.338 15.712 121.122 15.568H121.32C121.236 15.508 121.158 15.448 121.086 15.388C121.014 15.328 120.942 15.268 120.87 15.208H119.97L119.808 15.028C119.796 15.004 119.778 14.974 119.754 14.938C119.73 14.902 119.706 14.872 119.682 14.848H120.222C120.198 14.8 120.168 14.758 120.132 14.722C120.108 14.674 120.084 14.626 120.06 14.578H119.898C119.898 14.566 119.886 14.536 119.862 14.488H119.7L119.646 14.398H119.664L119.556 14.128H119.466C119.454 14.08 119.442 14.038 119.43 14.002C119.418 13.954 119.406 13.906 119.394 13.858H118.71C118.674 13.726 118.656 13.606 118.656 13.498H119.25V13.318C119.25 13.258 119.25 13.198 119.25 13.138C119.25 13.066 119.256 13.006 119.268 12.958H119.808C119.82 12.898 119.832 12.838 119.844 12.778C119.856 12.706 119.868 12.646 119.88 12.598H119.376L119.412 12.508H119.43L119.466 12.418H119.448C119.472 12.37 119.496 12.328 119.52 12.292C119.544 12.244 119.562 12.196 119.574 12.148H118.512L118.62 11.968H118.224C118.26 11.932 118.284 11.902 118.296 11.878H118.944C118.968 11.854 118.992 11.824 119.016 11.788C119.04 11.752 119.064 11.722 119.088 11.698H119.124C119.244 11.554 119.37 11.434 119.502 11.338H118.026C118.11 11.278 118.2 11.218 118.296 11.158C118.38 11.086 118.47 11.026 118.566 10.978H119.556L119.718 10.888H120.222C120.246 10.864 120.276 10.846 120.312 10.834C120.348 10.822 120.378 10.81 120.402 10.798H120.618C120.834 10.69 121.068 10.6 121.32 10.528H122.418C122.586 10.468 122.754 10.42 122.922 10.384C123.102 10.336 123.288 10.294 123.48 10.258H123.03L123.318 10.204L125.226 9.898V9.808H126.144V9.718H124.416V9.628H125.442C125.442 9.568 125.442 9.52 125.442 9.484C125.442 9.436 125.436 9.394 125.424 9.358C125.412 9.25 125.37 9.16 125.298 9.088H124.992C124.98 9.076 124.95 9.058 124.902 9.034L124.776 9.088H124.47C124.422 9.124 124.374 9.166 124.326 9.214C124.278 9.25 124.224 9.298 124.164 9.358H124.182C124.05 9.49 123.882 9.556 123.678 9.556H120.618C120.438 9.556 120.318 9.49 120.258 9.358H120.24C120.204 9.298 120.192 9.232 120.204 9.16V9.088H120.492C120.504 9.064 120.51 9.034 120.51 8.998H119.358C119.358 8.95 119.37 8.89 119.394 8.818H121.986C121.986 8.806 121.998 8.776 122.022 8.728H120.42C120.456 8.608 120.51 8.488 120.582 8.368H120.888C120.924 8.308 120.966 8.248 121.014 8.188C121.062 8.128 121.11 8.068 121.158 8.008H119.808L119.97 7.828H122.58C122.628 7.78 122.676 7.738 122.724 7.702C122.784 7.654 122.838 7.606 122.886 7.558H121.23L121.338 7.468H120.834C120.894 7.42 120.96 7.378 121.032 7.342C121.104 7.294 121.176 7.246 121.248 7.198H122.094C122.346 7.054 122.61 6.934 122.886 6.838H123.012C123.336 6.718 123.696 6.628 124.092 6.568C124.5 6.496 124.944 6.46 125.424 6.46C126.408 6.46 127.242 6.586 127.926 6.838H127.782C127.914 6.886 128.04 6.94 128.16 7C128.292 7.06 128.418 7.126 128.538 7.198H127.692L128.07 7.468H128.574L128.682 7.558H130.338L130.608 7.828H127.998C128.022 7.852 128.046 7.882 128.07 7.918C128.094 7.954 128.118 7.984 128.142 8.008H129.474C129.522 8.056 129.564 8.116 129.6 8.188C129.648 8.248 129.684 8.308 129.708 8.368H129.42L129.582 8.728H131.184C131.208 8.776 131.22 8.806 131.22 8.818H128.628C128.652 8.842 128.664 8.872 128.664 8.908C128.676 8.944 128.688 8.974 128.7 8.998H129.294C129.294 9.01 129.294 9.022 129.294 9.034C129.306 9.046 129.312 9.064 129.312 9.088H129.618L129.726 9.628H128.682C128.682 9.64 128.682 9.652 128.682 9.664C128.694 9.676 128.7 9.694 128.7 9.718H130.428V9.808H129.528V9.898C129.54 9.958 129.546 10.018 129.546 10.078C129.546 10.138 129.546 10.198 129.546 10.258H130.014V10.528H128.898V10.798H128.7V10.888H128.214V10.978H127.224V11.338H128.7V11.698H128.664V11.878H128.016V11.968H128.412V12.148H129.6V12.418H129.384V12.598H129.528V12.958H129.42V13.498H128.826V13.858H129.51V14.128H129.6V14.488H129.762V14.578H129.906V14.848H129.348V15.028H129.24ZM124.02 8.98C123.936 8.98 123.876 8.986 123.84 8.998H124.218C124.182 8.986 124.116 8.98 124.02 8.98ZM124.146 12.112L123.984 12.148H124.146V12.112ZM123.534 12.598H124.038C123.906 12.694 123.84 12.814 123.84 12.958H123.3V13.012C123.3 13.132 123.342 13.234 123.426 13.318C123.486 13.402 123.606 13.462 123.786 13.498H124.218C124.398 13.462 124.554 13.402 124.686 13.318C124.794 13.222 124.896 13.102 124.992 12.958H125.082C125.106 12.898 125.13 12.844 125.154 12.796C125.178 12.736 125.196 12.67 125.208 12.598H125.064C125.064 12.574 125.064 12.556 125.064 12.544C125.076 12.532 125.082 12.52 125.082 12.508H125.1V12.418H125.316C125.328 12.37 125.334 12.328 125.334 12.292C125.334 12.244 125.334 12.196 125.334 12.148H125.028L124.146 12.346C124.098 12.358 124.05 12.37 124.002 12.382C123.966 12.394 123.93 12.406 123.894 12.418C123.858 12.43 123.822 12.442 123.786 12.454C123.75 12.466 123.72 12.484 123.696 12.508H123.678C123.654 12.52 123.63 12.532 123.606 12.544C123.582 12.556 123.558 12.574 123.534 12.598ZM123.624 13.498H123.174C123.222 13.51 123.294 13.516 123.39 13.516C123.426 13.516 123.462 13.516 123.498 13.516C123.546 13.516 123.588 13.51 123.624 13.498ZM141.535 14.668H144.217V15.028H142.687V15.298H142.435V15.478H141.319V15.568H141.877C141.853 15.736 141.781 15.856 141.661 15.928H141.265C141.205 15.976 141.115 16 140.995 16H137.557C137.449 16 137.365 15.976 137.305 15.928H137.701C137.581 15.856 137.509 15.736 137.485 15.568H136.909V15.478H138.025V15.298H138.277V15.028H139.807V14.668H137.125V14.308H137.791V14.218H137.197V14.038H137.215V13.858H136.927V13.498H137.161V13.138H136.423V12.778H136.603V12.418H137.431V12.058H137.233V11.878H137.161V11.788H137.089V11.518H137.197V11.428H137.287V11.248H137.269V11.068H137.215V10.888H136.459V10.708H136.657V10.672C136.657 10.624 136.651 10.582 136.639 10.546C136.639 10.51 136.639 10.474 136.639 10.438H136.999C136.987 10.378 136.975 10.33 136.963 10.294C136.951 10.246 136.939 10.204 136.927 10.168H137.251C137.179 10.012 137.077 9.892 136.945 9.808H136.369C136.237 9.724 136.063 9.682 135.847 9.682C135.631 9.682 135.463 9.724 135.343 9.808H135.775C135.715 9.856 135.655 9.91 135.595 9.97C135.547 10.018 135.511 10.084 135.487 10.168H134.947C134.923 10.216 134.899 10.306 134.875 10.438H134.965C134.953 10.486 134.947 10.564 134.947 10.672V10.708H134.821V10.888H135.415V11.068H135.451V11.248H135.397V11.428H135.271V11.518H135.145V11.788H135.343V11.878H135.469V12.058H135.397V12.418H135.865V12.778H135.361V13.138H135.451V13.498H135.253V13.858H135.469V14.038H135.451V14.128H135.505V14.218H136.495V14.308H136.909V14.668H135.793V15.028H135.829V15.298H135.145V15.478H135.919V15.568H136.117C136.093 15.736 136.015 15.856 135.883 15.928H135.055C134.995 15.976 134.911 16 134.803 16H131.383C131.275 16 131.191 15.976 131.131 15.928H131.959C131.827 15.856 131.749 15.736 131.725 15.568H131.527V15.478H130.753V15.298H131.437V15.028H131.401V14.668H132.517V14.308H132.103V14.218H131.113V14.128H131.059V14.038H131.077V13.858H130.861V13.498H131.059V13.138H130.969V12.778H131.473V12.418H131.005V12.058H131.077V11.878H130.951V11.788H130.753V11.518H130.879V11.428H131.005V11.248H131.059V11.068H131.023V10.888H130.429V10.708H130.555V10.438H130.465V10.168H131.005V9.808H130.555V9.538H130.951V9.358H131.059V9.088H130.987V8.818H131.005V8.368H131.095V8.188H131.077V7.918H131.311V7.828H131.167V7.558H131.383V7.468H130.663V7.288H131.185V7.018H132.157C132.181 6.946 132.205 6.886 132.229 6.838H131.653C131.749 6.706 131.881 6.64 132.049 6.64H135.199C135.367 6.64 135.499 6.706 135.595 6.838H135.901C136.165 6.718 136.447 6.628 136.747 6.568C137.047 6.496 137.359 6.46 137.683 6.46C138.283 6.46 138.823 6.586 139.303 6.838H139.501C139.561 6.862 139.615 6.892 139.663 6.928C139.711 6.952 139.759 6.982 139.807 7.018H139.555C139.615 7.054 139.675 7.096 139.735 7.144C139.795 7.18 139.849 7.228 139.897 7.288H141.301C141.373 7.336 141.433 7.396 141.481 7.468H140.491C140.503 7.48 140.515 7.492 140.527 7.504C140.539 7.516 140.551 7.534 140.563 7.558H140.815C140.851 7.606 140.887 7.654 140.923 7.702C140.959 7.738 140.989 7.78 141.013 7.828H141.175L141.229 7.918H140.995L141.157 8.188H141.175C141.199 8.248 141.229 8.308 141.265 8.368H141.175C141.235 8.5 141.283 8.62 141.319 8.728C141.319 8.74 141.331 8.77 141.355 8.818H141.337C141.361 8.866 141.373 8.914 141.373 8.962C141.385 8.998 141.397 9.04 141.409 9.088H141.481C141.505 9.136 141.517 9.184 141.517 9.232C141.529 9.268 141.541 9.31 141.553 9.358H141.427C141.451 9.43 141.463 9.49 141.463 9.538H141.085C141.097 9.586 141.103 9.634 141.103 9.682C141.103 9.718 141.109 9.76 141.121 9.808H141.697C141.709 9.856 141.715 9.916 141.715 9.988C141.727 10.048 141.733 10.108 141.733 10.168H141.409V10.438H141.067V10.708H140.869V10.888H141.625V11.068H141.679V11.248H141.697V11.428H141.607V11.518H141.499V11.788H141.571V11.878H141.643V12.058H141.841V12.418H141.013V12.778H140.833V13.138H141.571V13.498H141.337V13.858H141.625V14.038H141.607V14.218H142.201V14.308H141.535V14.668ZM135.487 7.018H135.289C135.289 7.03 135.289 7.048 135.289 7.072C135.301 7.084 135.307 7.102 135.307 7.126V7.144C135.331 7.12 135.361 7.096 135.397 7.072C135.433 7.048 135.463 7.03 135.487 7.018ZM134.785 7.288V7.468H136.279L136.495 7.288H134.785ZM135.289 7.558V7.72C135.313 7.684 135.361 7.63 135.433 7.558H135.289ZM152.566 15.028V15.208H154.132V15.514C154.132 15.538 154.126 15.556 154.114 15.568H153.268C153.244 15.736 153.166 15.856 153.034 15.928H152.872C152.812 15.976 152.728 16 152.62 16H149.47C149.362 16 149.278 15.976 149.218 15.928H149.362C149.242 15.844 149.17 15.724 149.146 15.568H150.01V15.208H149.29C149.23 15.268 149.164 15.328 149.092 15.388C149.032 15.448 148.966 15.508 148.894 15.568H148.696C148.48 15.724 148.264 15.844 148.048 15.928H147.472C147.388 15.964 147.292 15.994 147.184 16.018C147.088 16.054 146.986 16.084 146.878 16.108H146.734C146.614 16.132 146.488 16.15 146.356 16.162C146.236 16.174 146.11 16.18 145.978 16.18C145.834 16.18 145.69 16.174 145.546 16.162C145.414 16.15 145.282 16.132 145.15 16.108H145.294C145.174 16.084 145.054 16.054 144.934 16.018C144.826 15.994 144.718 15.964 144.61 15.928H145.168C144.904 15.832 144.664 15.712 144.448 15.568H144.646C144.562 15.508 144.484 15.448 144.412 15.388C144.34 15.328 144.268 15.268 144.196 15.208H143.296L143.134 15.028C143.122 15.004 143.104 14.974 143.08 14.938C143.056 14.902 143.032 14.872 143.008 14.848H143.548C143.524 14.8 143.494 14.758 143.458 14.722C143.434 14.674 143.41 14.626 143.386 14.578H143.224C143.224 14.566 143.212 14.536 143.188 14.488H143.026L142.972 14.398H142.99L142.882 14.128H142.792C142.78 14.08 142.768 14.038 142.756 14.002C142.744 13.954 142.732 13.906 142.72 13.858H142.036C142 13.726 141.982 13.606 141.982 13.498H142.576V13.318C142.576 13.258 142.576 13.198 142.576 13.138C142.576 13.066 142.582 13.006 142.594 12.958H143.134C143.146 12.898 143.158 12.838 143.17 12.778C143.182 12.706 143.194 12.646 143.206 12.598H142.702L142.738 12.508H142.756L142.792 12.418H142.774C142.798 12.37 142.822 12.328 142.846 12.292C142.87 12.244 142.888 12.196 142.9 12.148H141.838L141.946 11.968H141.55C141.586 11.932 141.61 11.902 141.622 11.878H142.27C142.294 11.854 142.318 11.824 142.342 11.788C142.366 11.752 142.39 11.722 142.414 11.698H142.45C142.57 11.554 142.696 11.434 142.828 11.338H141.352C141.436 11.278 141.526 11.218 141.622 11.158C141.706 11.086 141.796 11.026 141.892 10.978H142.882L143.044 10.888H143.548C143.572 10.864 143.602 10.846 143.638 10.834C143.674 10.822 143.704 10.81 143.728 10.798H143.944C144.16 10.69 144.394 10.6 144.646 10.528H145.744C145.912 10.468 146.08 10.42 146.248 10.384C146.428 10.336 146.614 10.294 146.806 10.258H146.356L146.644 10.204L148.552 9.898V9.808H149.47V9.718H147.742V9.628H148.768C148.768 9.568 148.768 9.52 148.768 9.484C148.768 9.436 148.762 9.394 148.75 9.358C148.738 9.25 148.696 9.16 148.624 9.088H148.318C148.306 9.076 148.276 9.058 148.228 9.034L148.102 9.088H147.796C147.748 9.124 147.7 9.166 147.652 9.214C147.604 9.25 147.55 9.298 147.49 9.358H147.508C147.376 9.49 147.208 9.556 147.004 9.556H143.944C143.764 9.556 143.644 9.49 143.584 9.358H143.566C143.53 9.298 143.518 9.232 143.53 9.16V9.088H143.818C143.83 9.064 143.836 9.034 143.836 8.998H142.684C142.684 8.95 142.696 8.89 142.72 8.818H145.312C145.312 8.806 145.324 8.776 145.348 8.728H143.746C143.782 8.608 143.836 8.488 143.908 8.368H144.214C144.25 8.308 144.292 8.248 144.34 8.188C144.388 8.128 144.436 8.068 144.484 8.008H143.134L143.296 7.828H145.906C145.954 7.78 146.002 7.738 146.05 7.702C146.11 7.654 146.164 7.606 146.212 7.558H144.556L144.664 7.468H144.16C144.22 7.42 144.286 7.378 144.358 7.342C144.43 7.294 144.502 7.246 144.574 7.198H145.42C145.672 7.054 145.936 6.934 146.212 6.838H146.338C146.662 6.718 147.022 6.628 147.418 6.568C147.826 6.496 148.27 6.46 148.75 6.46C149.734 6.46 150.568 6.586 151.252 6.838H151.108C151.24 6.886 151.366 6.94 151.486 7C151.618 7.06 151.744 7.126 151.864 7.198H151.018L151.396 7.468H151.9L152.008 7.558H153.664L153.934 7.828H151.324C151.348 7.852 151.372 7.882 151.396 7.918C151.42 7.954 151.444 7.984 151.468 8.008H152.8C152.848 8.056 152.89 8.116 152.926 8.188C152.974 8.248 153.01 8.308 153.034 8.368H152.746L152.908 8.728H154.51C154.534 8.776 154.546 8.806 154.546 8.818H151.954C151.978 8.842 151.99 8.872 151.99 8.908C152.002 8.944 152.014 8.974 152.026 8.998H152.62C152.62 9.01 152.62 9.022 152.62 9.034C152.632 9.046 152.638 9.064 152.638 9.088H152.944L153.052 9.628H152.008C152.008 9.64 152.008 9.652 152.008 9.664C152.02 9.676 152.026 9.694 152.026 9.718H153.754V9.808H152.854V9.898C152.866 9.958 152.872 10.018 152.872 10.078C152.872 10.138 152.872 10.198 152.872 10.258H153.34V10.528H152.224V10.798H152.026V10.888H151.54V10.978H150.55V11.338H152.026V11.698H151.99V11.878H151.342V11.968H151.738V12.148H152.926V12.418H152.71V12.598H152.854V12.958H152.746V13.498H152.152V13.858H152.836V14.128H152.926V14.488H153.088V14.578H153.232V14.848H152.674V15.028H152.566ZM147.346 8.98C147.262 8.98 147.202 8.986 147.166 8.998H147.544C147.508 8.986 147.442 8.98 147.346 8.98ZM147.472 12.112L147.31 12.148H147.472V12.112ZM146.86 12.598H147.364C147.232 12.694 147.166 12.814 147.166 12.958H146.626V13.012C146.626 13.132 146.668 13.234 146.752 13.318C146.812 13.402 146.932 13.462 147.112 13.498H147.544C147.724 13.462 147.88 13.402 148.012 13.318C148.12 13.222 148.222 13.102 148.318 12.958H148.408C148.432 12.898 148.456 12.844 148.48 12.796C148.504 12.736 148.522 12.67 148.534 12.598H148.39C148.39 12.574 148.39 12.556 148.39 12.544C148.402 12.532 148.408 12.52 148.408 12.508H148.426V12.418H148.642C148.654 12.37 148.66 12.328 148.66 12.292C148.66 12.244 148.66 12.196 148.66 12.148H148.354L147.472 12.346C147.424 12.358 147.376 12.37 147.328 12.382C147.292 12.394 147.256 12.406 147.22 12.418C147.184 12.43 147.148 12.442 147.112 12.454C147.076 12.466 147.046 12.484 147.022 12.508H147.004C146.98 12.52 146.956 12.532 146.932 12.544C146.908 12.556 146.884 12.574 146.86 12.598ZM146.95 13.498H146.5C146.548 13.51 146.62 13.516 146.716 13.516C146.752 13.516 146.788 13.516 146.824 13.516C146.872 13.516 146.914 13.51 146.95 13.498Z" fill="black"/>
</svg>
